<?xml version="1.0" encoding="UTF-8"?>
<!DOCTYPE svg PUBLIC "-//W3C//DTD SVG 1.1//EN" "http://www.w3.org/Graphics/SVG/1.1/DTD/svg11.dtd">
<svg xmlns="http://www.w3.org/2000/svg" version="1.1" width="1024px" height="1024px" style="shape-rendering:geometricPrecision; text-rendering:geometricPrecision; image-rendering:optimizeQuality; fill-rule:evenodd; clip-rule:evenodd" xmlns:xlink="http://www.w3.org/1999/xlink">
<g><path style="opacity:1" fill="#fefefd" d="M -0.5,-0.5 C 340.833,-0.5 682.167,-0.5 1023.5,-0.5C 1023.5,340.833 1023.5,682.167 1023.5,1023.5C 682.167,1023.5 340.833,1023.5 -0.5,1023.5C -0.5,682.167 -0.5,340.833 -0.5,-0.5 Z"/></g>
<g><path style="opacity:1" fill="#1b4a20" d="M 170.5,198.5 C 176.301,199.682 182.301,200.348 188.5,200.5C 193.617,201.989 198.951,202.989 204.5,203.5C 207.219,204.913 210.219,205.58 213.5,205.5C 215.515,206.924 217.848,207.59 220.5,207.5C 224.216,209.405 228.216,210.739 232.5,211.5C 233.791,211.263 234.791,211.596 235.5,212.5C 244.764,216.796 254.098,221.13 263.5,225.5C 272.196,229.844 280.196,235.177 287.5,241.5C 287.062,241.435 286.728,241.601 286.5,242C 287.789,243.802 289.456,244.969 291.5,245.5C 292.5,245.833 293.167,246.5 293.5,247.5C 296.118,250.785 299.118,253.785 302.5,256.5C 305.243,258.239 307.243,260.573 308.5,263.5C 309.08,265.749 310.413,267.415 312.5,268.5C 313.906,268.973 314.573,269.973 314.5,271.5C 315.34,273.853 316.674,275.853 318.5,277.5C 319.906,277.973 320.573,278.973 320.5,280.5C 321.079,283.331 322.412,285.664 324.5,287.5C 326.912,290.368 328.579,293.701 329.5,297.5C 329.707,300.241 330.707,302.574 332.5,304.5C 333.931,305.78 334.598,307.447 334.5,309.5C 336.064,316.531 338.398,323.198 341.5,329.5C 342.434,330.568 342.768,331.901 342.5,333.5C 344.723,344.721 347.389,355.721 350.5,366.5C 352.755,381.442 355.755,396.109 359.5,410.5C 360.458,412.302 361.125,414.302 361.5,416.5C 360.933,417.42 361.599,417.754 363.5,417.5C 366.275,402.518 368.941,387.518 371.5,372.5C 372.913,369.781 373.58,366.781 373.5,363.5C 376.613,353.386 379.279,343.053 381.5,332.5C 383.405,328.784 384.739,324.784 385.5,320.5C 385.595,318.214 386.262,316.214 387.5,314.5C 389.931,310.889 391.597,306.889 392.5,302.5C 399.385,285.634 409.051,270.634 421.5,257.5C 425.833,253.833 429.833,249.833 433.5,245.5C 450.036,229.681 469.369,218.348 491.5,211.5C 497.166,210.61 502.5,208.943 507.5,206.5C 511.761,206.102 515.761,205.102 519.5,203.5C 527.385,202.687 535.051,201.353 542.5,199.5C 542.842,198.662 543.508,198.328 544.5,198.5C 549.37,199.804 554.37,199.804 559.5,198.5C 560.231,200.401 560.231,202.401 559.5,204.5C 557.043,207.751 555.376,211.418 554.5,215.5C 553.008,219.818 551.008,223.818 548.5,227.5C 546.076,230.008 544.41,233.008 543.5,236.5C 535.784,252.204 526.117,266.537 514.5,279.5C 512.413,280.585 511.08,282.251 510.5,284.5C 509.833,285.5 509.167,286.5 508.5,287.5C 501.833,292.167 496.167,297.833 491.5,304.5C 490.833,304.833 490.167,305.167 489.5,305.5C 486.833,306.167 485.167,307.833 484.5,310.5C 473.136,320.188 460.469,327.855 446.5,333.5C 436.76,336.857 427.093,340.19 417.5,343.5C 414.962,343.507 412.462,343.841 410,344.5C 408.624,344.316 407.791,343.649 407.5,342.5C 415.017,328.122 424.017,314.788 434.5,302.5C 438.536,298.466 442.202,294.132 445.5,289.5C 445.5,288.833 445.833,288.5 446.5,288.5C 453.833,281.833 460.833,274.833 467.5,267.5C 471.931,262.46 476.931,258.127 482.5,254.5C 486.051,252.889 489.051,250.556 491.5,247.5C 493.237,245.45 495.237,243.617 497.5,242C 496.906,241.536 496.239,241.369 495.5,241.5C 492.008,242.41 489.008,244.076 486.5,246.5C 484.664,248.588 482.331,249.921 479.5,250.5C 476.802,250.845 474.802,252.178 473.5,254.5C 470.802,254.845 468.802,256.178 467.5,258.5C 457.934,265.889 448.768,273.889 440,282.5C 431.997,291.874 424.497,301.541 417.5,311.5C 415.412,313.336 414.079,315.669 413.5,318.5C 410.126,322.581 407.793,327.247 406.5,332.5C 406.065,335.157 405.065,337.491 403.5,339.5C 401.206,342.37 399.872,345.703 399.5,349.5C 399.598,351.553 398.931,353.22 397.5,354.5C 395.733,356.792 394.733,359.458 394.5,362.5C 394.737,363.791 394.404,364.791 393.5,365.5C 390.527,371.085 388.527,377.085 387.5,383.5C 385.425,387.474 384.425,391.808 384.5,396.5C 383.895,447.327 383.229,497.994 382.5,548.5C 381.264,550.649 380.264,552.982 379.5,555.5C 377.167,557.167 375.167,559.167 373.5,561.5C 373.158,562.338 372.492,562.672 371.5,562.5C 368.33,563.084 365.163,563.75 362,564.5C 358.837,563.75 355.67,563.084 352.5,562.5C 351.508,562.672 350.842,562.338 350.5,561.5C 346.286,558.11 343.453,553.777 342,548.5C 341.667,499.833 341.333,451.167 341,402.5C 340.769,396.832 339.602,391.499 337.5,386.5C 337.277,382.838 336.277,379.505 334.5,376.5C 332.595,372.784 331.261,368.784 330.5,364.5C 330.267,361.458 329.267,358.792 327.5,356.5C 327.267,353.458 326.267,350.792 324.5,348.5C 320.518,339.577 316.518,330.577 312.5,321.5C 311.921,318.669 310.588,316.336 308.5,314.5C 301.919,304.577 294.919,294.911 287.5,285.5C 283.5,279.5 278.5,274.5 272.5,270.5C 264.491,264.497 256.491,258.497 248.5,252.5C 247.198,250.178 245.198,248.845 242.5,248.5C 240.326,248.25 238.659,247.25 237.5,245.5C 235.664,243.412 233.331,242.079 230.5,241.5C 229.761,241.369 229.094,241.536 228.5,242C 235.022,247.031 241.356,252.197 247.5,257.5C 247.062,257.435 246.728,257.601 246.5,258C 247.789,259.802 249.456,260.969 251.5,261.5C 255.845,266.844 260.845,271.511 266.5,275.5C 268.5,276.833 270.167,278.5 271.5,280.5C 273.766,284.436 276.766,287.769 280.5,290.5C 282.914,291.911 284.581,293.911 285.5,296.5C 286.08,298.749 287.413,300.415 289.5,301.5C 292.471,303.443 294.471,306.109 295.5,309.5C 296.433,312.37 298.1,314.704 300.5,316.5C 306.332,324.824 311.665,333.491 316.5,342.5C 315.448,344.256 313.781,344.923 311.5,344.5C 307.761,342.898 303.761,341.898 299.5,341.5C 274.63,334.571 252.963,322.238 234.5,304.5C 228.119,297.452 221.452,290.785 214.5,284.5C 213.92,282.251 212.587,280.585 210.5,279.5C 209.92,277.251 208.587,275.585 206.5,274.5C 203.529,272.557 201.529,269.891 200.5,266.5C 199.567,263.63 197.9,261.296 195.5,259.5C 194.617,256.296 192.95,253.629 190.5,251.5C 185.644,245.948 181.977,239.615 179.5,232.5C 176.008,224.182 172.008,216.182 167.5,208.5C 166.5,205.167 165.5,201.833 164.5,198.5C 166.5,198.5 168.5,198.5 170.5,198.5 Z"/></g>
<g><path style="opacity:1" fill="#071107" d="M 170.5,198.5 C 176.75,198.184 182.75,198.85 188.5,200.5C 182.301,200.348 176.301,199.682 170.5,198.5 Z"/></g>
<g><path style="opacity:1" fill="#0d140c" d="M 170.5,198.5 C 168.5,198.5 166.5,198.5 164.5,198.5C 165.5,201.833 166.5,205.167 167.5,208.5C 165.337,205.507 163.67,202.173 162.5,198.5C 165.309,197.2 167.976,197.2 170.5,198.5 Z"/></g>
<g><path style="opacity:1" fill="#070c06" d="M 188.5,200.5 C 194.142,200.496 199.475,201.496 204.5,203.5C 198.951,202.989 193.617,201.989 188.5,200.5 Z"/></g>
<g><path style="opacity:1" fill="#121611" d="M 542.5,199.5 C 535.051,201.353 527.385,202.687 519.5,203.5C 526.849,201.065 534.515,199.732 542.5,199.5 Z"/></g>
<g><path style="opacity:1" fill="#111b0f" d="M 559.5,204.5 C 560.231,202.401 560.231,200.401 559.5,198.5C 554.37,199.804 549.37,199.804 544.5,198.5C 550.822,197.723 557.155,197.556 563.5,198C 562.267,200.314 560.933,202.481 559.5,204.5 Z"/></g>
<g><path style="opacity:1" fill="#060e04" d="M 204.5,203.5 C 207.781,203.42 210.781,204.087 213.5,205.5C 210.219,205.58 207.219,204.913 204.5,203.5 Z"/></g>
<g><path style="opacity:1" fill="#121611" d="M 519.5,203.5 C 515.761,205.102 511.761,206.102 507.5,206.5C 511.163,204.584 515.163,203.584 519.5,203.5 Z"/></g>
<g><path style="opacity:1" fill="#0f130d" d="M 213.5,205.5 C 216.152,205.41 218.485,206.076 220.5,207.5C 217.848,207.59 215.515,206.924 213.5,205.5 Z"/></g>
<g><path style="opacity:1" fill="#0a0f08" d="M 507.5,206.5 C 502.5,208.943 497.166,210.61 491.5,211.5C 496.5,209.057 501.834,207.39 507.5,206.5 Z"/></g>
<g><path style="opacity:1" fill="#10130e" d="M 559.5,204.5 C 558.624,208.582 556.957,212.249 554.5,215.5C 555.376,211.418 557.043,207.751 559.5,204.5 Z"/></g>
<g><path style="opacity:1" fill="#161815" d="M 220.5,207.5 C 224.915,207.861 228.915,209.194 232.5,211.5C 228.216,210.739 224.216,209.405 220.5,207.5 Z"/></g>
<g><path style="opacity:1" fill="#141912" d="M 167.5,208.5 C 172.008,216.182 176.008,224.182 179.5,232.5C 174.459,225.086 170.459,217.086 167.5,208.5 Z"/></g>
<g><path style="opacity:1" fill="#121611" d="M 235.5,212.5 C 245.643,215.24 254.976,219.573 263.5,225.5C 254.098,221.13 244.764,216.796 235.5,212.5 Z"/></g>
<g><path style="opacity:1" fill="#0b110a" d="M 548.5,227.5 C 547.59,230.992 545.924,233.992 543.5,236.5C 544.41,233.008 546.076,230.008 548.5,227.5 Z"/></g>
<g><path style="opacity:1" fill="#10170f" d="M 287.5,241.5 C 289.167,242.5 290.5,243.833 291.5,245.5C 289.456,244.969 287.789,243.802 286.5,242C 286.728,241.601 287.062,241.435 287.5,241.5 Z"/></g>
<g><path style="opacity:1" fill="#10130c" d="M 495.5,241.5 C 492.992,243.924 489.992,245.59 486.5,246.5C 489.008,244.076 492.008,242.41 495.5,241.5 Z"/></g>
<g><path style="opacity:1" fill="#0a130a" d="M 230.5,241.5 C 233.331,242.079 235.664,243.412 237.5,245.5C 234.669,244.921 232.336,243.588 230.5,241.5 Z"/></g>
<g><path style="opacity:1" fill="#2d332b" d="M 293.5,247.5 C 297.522,249.522 300.522,252.522 302.5,256.5C 299.118,253.785 296.118,250.785 293.5,247.5 Z"/></g>
<g><path style="opacity:1" fill="#121812" d="M 242.5,248.5 C 245.198,248.845 247.198,250.178 248.5,252.5C 246.147,251.66 244.147,250.326 242.5,248.5 Z"/></g>
<g><path style="opacity:1" fill="#0e140c" d="M 433.5,245.5 C 429.833,249.833 425.833,253.833 421.5,257.5C 424.5,252.5 428.5,248.5 433.5,245.5 Z"/></g>
<g><path style="opacity:1" fill="#141813" d="M 479.5,250.5 C 477.853,252.326 475.853,253.66 473.5,254.5C 474.802,252.178 476.802,250.845 479.5,250.5 Z"/></g>
<g><path style="opacity:1" fill="#121710" d="M 491.5,247.5 C 489.051,250.556 486.051,252.889 482.5,254.5C 484.949,251.444 487.949,249.111 491.5,247.5 Z"/></g>
<g><path style="opacity:1" fill="#131812" d="M 190.5,251.5 C 192.95,253.629 194.617,256.296 195.5,259.5C 193.05,257.371 191.383,254.704 190.5,251.5 Z"/></g>
<g><path style="opacity:1" fill="#1a1d19" d="M 473.5,254.5 C 471.853,256.326 469.853,257.66 467.5,258.5C 468.802,256.178 470.802,254.845 473.5,254.5 Z"/></g>
<g><path style="opacity:1" fill="#0e130c" d="M 247.5,257.5 C 249.167,258.5 250.5,259.833 251.5,261.5C 249.456,260.969 247.789,259.802 246.5,258C 246.728,257.601 247.062,257.435 247.5,257.5 Z"/></g>
<g><path style="opacity:1" fill="#111610" d="M 195.5,259.5 C 197.9,261.296 199.567,263.63 200.5,266.5C 198.1,264.704 196.433,262.37 195.5,259.5 Z"/></g>
<g><path style="opacity:1" fill="#0e170d" d="M 251.5,261.5 C 257.129,265.461 262.129,270.127 266.5,275.5C 260.845,271.511 255.845,266.844 251.5,261.5 Z"/></g>
<g><path style="opacity:1" fill="#111710" d="M 308.5,263.5 C 310.587,264.585 311.92,266.251 312.5,268.5C 310.413,267.415 309.08,265.749 308.5,263.5 Z"/></g>
<g><path style="opacity:1" fill="#101711" d="M 314.5,271.5 C 316.822,272.802 318.155,274.802 318.5,277.5C 316.674,275.853 315.34,273.853 314.5,271.5 Z"/></g>
<g><path style="opacity:1" fill="#040f02" d="M 272.5,270.5 C 278.5,274.5 283.5,279.5 287.5,285.5C 282.167,280.833 277.167,275.833 272.5,270.5 Z"/></g>
<g><path style="opacity:1" fill="#10160d" d="M 206.5,274.5 C 208.587,275.585 209.92,277.251 210.5,279.5C 208.413,278.415 207.08,276.749 206.5,274.5 Z"/></g>
<g><path style="opacity:1" fill="#091207" d="M 467.5,267.5 C 460.833,274.833 453.833,281.833 446.5,288.5C 446.369,287.761 446.536,287.094 447,286.5C 453.423,279.572 460.256,273.238 467.5,267.5 Z"/></g>
<g><path style="opacity:1" fill="#161913" d="M 514.5,279.5 C 513.92,281.749 512.587,283.415 510.5,284.5C 511.08,282.251 512.413,280.585 514.5,279.5 Z"/></g>
<g><path style="opacity:1" fill="#0e130c" d="M 210.5,279.5 C 212.587,280.585 213.92,282.251 214.5,284.5C 212.413,283.415 211.08,281.749 210.5,279.5 Z"/></g>
<g><path style="opacity:1" fill="#091008" d="M 320.5,280.5 C 322.588,282.336 323.921,284.669 324.5,287.5C 322.412,285.664 321.079,283.331 320.5,280.5 Z"/></g>
<g><path style="opacity:1" fill="#161a16" d="M 271.5,280.5 C 275.234,283.231 278.234,286.564 280.5,290.5C 276.766,287.769 273.766,284.436 271.5,280.5 Z"/></g>
<g><path style="opacity:1" fill="#0d170c" d="M 214.5,284.5 C 221.452,290.785 228.119,297.452 234.5,304.5C 226.854,298.854 220.188,292.188 214.5,284.5 Z"/></g>
<g><path style="opacity:1" fill="#10170d" d="M 445.5,289.5 C 442.202,294.132 438.536,298.466 434.5,302.5C 437.046,297.281 440.713,292.948 445.5,289.5 Z"/></g>
<g><path style="opacity:1" fill="#151814" d="M 508.5,287.5 C 503.167,293.5 497.5,299.167 491.5,304.5C 496.167,297.833 501.833,292.167 508.5,287.5 Z"/></g>
<g><path style="opacity:1" fill="#0b1408" d="M 285.5,296.5 C 287.587,297.585 288.92,299.251 289.5,301.5C 287.413,300.415 286.08,298.749 285.5,296.5 Z"/></g>
<g><path style="opacity:1" fill="#080c06" d="M 329.5,297.5 C 331.293,299.426 332.293,301.759 332.5,304.5C 330.707,302.574 329.707,300.241 329.5,297.5 Z"/></g>
<g><path style="opacity:1" fill="#0b110a" d="M 392.5,302.5 C 391.597,306.889 389.931,310.889 387.5,314.5C 388.403,310.111 390.069,306.111 392.5,302.5 Z"/></g>
<g><path style="opacity:1" fill="#1c1d1b" d="M 489.5,305.5 C 488.167,307.5 486.5,309.167 484.5,310.5C 485.167,307.833 486.833,306.167 489.5,305.5 Z"/></g>
<g><path style="opacity:1" fill="#0e120c" d="M 334.5,309.5 C 337.602,315.802 339.936,322.469 341.5,329.5C 338.398,323.198 336.064,316.531 334.5,309.5 Z"/></g>
<g><path style="opacity:1" fill="#181a18" d="M 295.5,309.5 C 297.9,311.296 299.567,313.63 300.5,316.5C 298.1,314.704 296.433,312.37 295.5,309.5 Z"/></g>
<g><path style="opacity:1" fill="#10150f" d="M 417.5,311.5 C 416.921,314.331 415.588,316.664 413.5,318.5C 414.079,315.669 415.412,313.336 417.5,311.5 Z"/></g>
<g><path style="opacity:1" fill="#151813" d="M 308.5,314.5 C 310.588,316.336 311.921,318.669 312.5,321.5C 310.412,319.664 309.079,317.331 308.5,314.5 Z"/></g>
<g><path style="opacity:1" fill="#131813" d="M 385.5,320.5 C 384.739,324.784 383.405,328.784 381.5,332.5C 381.861,328.085 383.194,324.085 385.5,320.5 Z"/></g>
<g><path style="opacity:1" fill="#0e110a" d="M 413.5,318.5 C 411.674,323.484 409.341,328.151 406.5,332.5C 407.793,327.247 410.126,322.581 413.5,318.5 Z"/></g>
<g><path style="opacity:1" fill="#0f140e" d="M 381.5,332.5 C 379.279,343.053 376.613,353.386 373.5,363.5C 375.095,352.784 377.761,342.451 381.5,332.5 Z"/></g>
<g><path style="opacity:1" fill="#10130e" d="M 342.5,333.5 C 346.24,344.131 348.907,355.131 350.5,366.5C 347.389,355.721 344.723,344.721 342.5,333.5 Z"/></g>
<g><path style="opacity:1" fill="#10140e" d="M 446.5,333.5 C 437.467,338.401 427.8,341.734 417.5,343.5C 427.093,340.19 436.76,336.857 446.5,333.5 Z"/></g>
<g><path style="opacity:1" fill="#0f120d" d="M 299.5,341.5 C 303.761,341.898 307.761,342.898 311.5,344.5C 307.163,344.416 303.163,343.416 299.5,341.5 Z"/></g>
<g><path style="opacity:1" fill="#0e150c" d="M 316.5,342.5 C 317.837,343.315 318.837,344.482 319.5,346C 316.636,346.193 313.97,345.693 311.5,344.5C 313.781,344.923 315.448,344.256 316.5,342.5 Z"/></g>
<g><path style="opacity:1" fill="#121611" d="M 403.5,339.5 C 402.737,343.137 401.403,346.47 399.5,349.5C 399.872,345.703 401.206,342.37 403.5,339.5 Z"/></g>
<g><path style="opacity:1" fill="#10160e" d="M 407.5,342.5 C 407.791,343.649 408.624,344.316 410,344.5C 412.462,343.841 414.962,343.507 417.5,343.5C 413.447,344.894 409.28,346.228 405,347.5C 405.097,345.541 405.93,343.875 407.5,342.5 Z"/></g>
<g><path style="opacity:1" fill="#0f130e" d="M 324.5,348.5 C 326.267,350.792 327.267,353.458 327.5,356.5C 325.733,354.208 324.733,351.542 324.5,348.5 Z"/></g>
<g><path style="opacity:1" fill="#121813" d="M 327.5,356.5 C 329.267,358.792 330.267,361.458 330.5,364.5C 328.733,362.208 327.733,359.542 327.5,356.5 Z"/></g>
<g><path style="opacity:1" fill="#11140f" d="M 397.5,354.5 C 397.267,357.542 396.267,360.208 394.5,362.5C 394.733,359.458 395.733,356.792 397.5,354.5 Z"/></g>
<g><path style="opacity:1" fill="#060906" d="M 373.5,363.5 C 373.58,366.781 372.913,369.781 371.5,372.5C 371.42,369.219 372.087,366.219 373.5,363.5 Z"/></g>
<g><path style="opacity:1" fill="#0e120d" d="M 350.5,366.5 C 354.246,380.894 357.246,395.561 359.5,410.5C 355.755,396.109 352.755,381.442 350.5,366.5 Z"/></g>
<g><path style="opacity:1" fill="#131812" d="M 334.5,376.5 C 336.277,379.505 337.277,382.838 337.5,386.5C 335.723,383.495 334.723,380.162 334.5,376.5 Z"/></g>
<g><path style="opacity:1" fill="#12140f" d="M 393.5,365.5 C 392.072,371.784 390.072,377.784 387.5,383.5C 388.527,377.085 390.527,371.085 393.5,365.5 Z"/></g>
<g><path style="opacity:1" fill="#141614" d="M 387.5,383.5 C 386.943,388.052 385.943,392.385 384.5,396.5C 384.425,391.808 385.425,387.474 387.5,383.5 Z"/></g>
<g><path style="opacity:1" fill="#060704" d="M 433.5,388.5 C 430.119,388.46 426.786,388.793 423.5,389.5C 425.117,388.028 427.117,387.361 429.5,387.5C 431.045,387.511 432.378,387.844 433.5,388.5 Z"/></g>
<g><path style="opacity:1" fill="#0f130c" d="M 301.5,389.5 C 299.354,389.122 297.187,388.788 295,388.5C 291.064,389.203 287.23,390.203 283.5,391.5C 289.185,387.239 295.185,386.572 301.5,389.5 Z"/></g>
<g><path style="opacity:1" fill="#1b4a20" d="M 301.5,389.5 C 302.833,391.5 304.5,393.167 306.5,394.5C 307.36,398.434 307.693,402.434 307.5,406.5C 307.672,407.492 307.338,408.158 306.5,408.5C 304.5,409.833 302.833,411.5 301.5,413.5C 298.279,413.896 295.612,415.229 293.5,417.5C 270.5,431.833 251.833,450.5 237.5,473.5C 234.46,476.914 232.46,480.914 231.5,485.5C 231.672,486.492 231.338,487.158 230.5,487.5C 229.521,488.765 228.521,490.099 227.5,491.5C 225.747,497.086 224.414,502.753 223.5,508.5C 221.369,513.152 220.369,518.152 220.5,523.5C 220.747,526.939 220.414,530.272 219.5,533.5C 218.347,539.319 218.181,545.319 219,551.5C 219.199,557.318 220.033,562.318 221.5,566.5C 222.461,568.265 222.795,570.265 222.5,572.5C 223.451,580.68 225.784,588.346 229.5,595.5C 229.707,598.241 230.707,600.574 232.5,602.5C 238.33,612.83 244.664,622.83 251.5,632.5C 256.5,639.5 262.5,645.5 269.5,650.5C 276.362,655.758 283.362,660.758 290.5,665.5C 295.247,669.207 300.581,671.874 306.5,673.5C 310.137,674.263 313.47,675.597 316.5,677.5C 320.805,679.746 325.471,681.08 330.5,681.5C 336.165,683.762 342.165,684.762 348.5,684.5C 358.167,684.5 367.833,684.5 377.5,684.5C 383.46,684.452 389.127,683.452 394.5,681.5C 402.052,680.538 409.052,678.205 415.5,674.5C 419.586,672.13 423.919,670.13 428.5,668.5C 431.331,667.921 433.664,666.588 435.5,664.5C 441.138,659.679 447.138,655.346 453.5,651.5C 460.5,646.5 466.5,640.5 471.5,633.5C 473.587,632.415 474.92,630.749 475.5,628.5C 481.573,619.088 487.24,609.422 492.5,599.5C 496.002,593.331 498.335,586.665 499.5,579.5C 500.913,576.781 501.58,573.781 501.5,570.5C 503.409,566.246 503.742,561.912 502.5,557.5C 503.789,546.791 503.789,536.124 502.5,525.5C 503.629,523.372 503.796,521.039 503,518.5C 502.386,513.89 501.22,509.557 499.5,505.5C 498.806,500.085 497.14,495.085 494.5,490.5C 493.069,489.22 492.402,487.553 492.5,485.5C 491.873,481.58 490.207,478.247 487.5,475.5C 482.257,466.916 476.591,458.583 470.5,450.5C 465.5,443.5 459.5,437.5 452.5,432.5C 446.492,428.164 440.492,423.831 434.5,419.5C 431.753,416.793 428.42,415.127 424.5,414.5C 423.508,414.672 422.842,414.338 422.5,413.5C 420.084,411.092 418.084,408.426 416.5,405.5C 416.46,402.119 416.793,398.786 417.5,395.5C 418.5,392.5 420.5,390.5 423.5,389.5C 426.786,388.793 430.119,388.46 433.5,388.5C 437.849,391.341 442.516,393.674 447.5,395.5C 457.294,400.294 465.961,406.628 473.5,414.5C 477.785,419.452 482.452,424.119 487.5,428.5C 488.419,431.089 490.086,433.089 492.5,434.5C 493.08,436.749 494.413,438.415 496.5,439.5C 501.489,444.803 505.489,450.803 508.5,457.5C 509.41,460.992 511.076,463.992 513.5,466.5C 514.338,466.842 514.672,467.508 514.5,468.5C 515.042,471.912 516.375,474.912 518.5,477.5C 519.931,478.78 520.598,480.447 520.5,482.5C 521.261,486.784 522.595,490.784 524.5,494.5C 525.864,502.263 527.531,509.263 529.5,515.5C 530.338,515.842 530.672,516.508 530.5,517.5C 530.783,534.657 530.45,551.99 529.5,569.5C 527.548,576.652 525.881,583.985 524.5,591.5C 522.595,595.216 521.261,599.216 520.5,603.5C 520.598,605.553 519.931,607.22 518.5,608.5C 515.351,613.131 513.017,618.131 511.5,623.5C 505.645,635.218 498.312,645.885 489.5,655.5C 489.565,655.062 489.399,654.728 489,654.5C 483.568,659.425 478.735,664.758 474.5,670.5C 465.675,678.411 456.008,685.077 445.5,690.5C 439.182,692.992 433.182,695.992 427.5,699.5C 425.208,701.267 422.542,702.267 419.5,702.5C 416.215,702.928 413.215,703.928 410.5,705.5C 404.906,706.232 399.573,707.565 394.5,709.5C 389.951,709.624 385.618,710.291 381.5,711.5C 367.66,712.36 353.994,712.693 340.5,712.5C 339.508,712.672 338.842,712.338 338.5,711.5C 336.801,710.504 334.301,709.837 331,709.5C 329.93,709.528 329.097,709.861 328.5,710.5C 325.368,709.64 322.368,708.64 319.5,707.5C 317.485,706.076 315.152,705.41 312.5,705.5C 310.214,705.405 308.214,704.738 306.5,703.5C 303.47,701.597 300.137,700.263 296.5,699.5C 294.574,697.707 292.241,696.707 289.5,696.5C 288.508,696.672 287.842,696.338 287.5,695.5C 284.992,693.076 281.992,691.41 278.5,690.5C 270.118,686.98 262.785,681.98 256.5,675.5C 255.415,673.413 253.749,672.08 251.5,671.5C 245.119,664.452 238.452,657.785 231.5,651.5C 219.11,637.401 209.777,621.401 203.5,603.5C 202.405,598.216 200.739,593.216 198.5,588.5C 197.087,585.781 196.42,582.781 196.5,579.5C 196.451,575.922 195.785,572.589 194.5,569.5C 193.532,567.393 193.198,565.059 193.5,562.5C 193.803,553.611 193.137,544.944 191.5,536.5C 191.205,534.265 191.539,532.265 192.5,530.5C 193.73,525.543 194.73,518.543 195.5,509.5C 197.435,504.427 198.768,499.094 199.5,493.5C 199.595,491.214 200.262,489.214 201.5,487.5C 203.267,485.208 204.267,482.542 204.5,479.5C 211.299,460.554 221.632,443.887 235.5,429.5C 241.167,424.5 246.5,419.167 251.5,413.5C 260.787,404.222 271.454,396.889 283.5,391.5C 287.23,390.203 291.064,389.203 295,388.5C 297.187,388.788 299.354,389.122 301.5,389.5 Z"/></g>
<g><path style="opacity:1" fill="#0c120b" d="M 301.5,389.5 C 304.167,390.167 305.833,391.833 306.5,394.5C 304.5,393.167 302.833,391.5 301.5,389.5 Z"/></g>
<g><path style="opacity:1" fill="#0e130c" d="M 433.5,388.5 C 438.753,389.793 443.419,392.126 447.5,395.5C 442.516,393.674 437.849,391.341 433.5,388.5 Z"/></g>
<g><path style="opacity:1" fill="#101410" d="M 371.5,372.5 C 368.941,387.518 366.275,402.518 363.5,417.5C 361.599,417.754 360.933,417.42 361.5,416.5C 364.833,401.833 368.167,387.167 371.5,372.5 Z"/></g>
<g><path style="opacity:1" fill="#141e12" d="M 306.5,394.5 C 309.982,398.24 310.315,402.24 307.5,406.5C 307.693,402.434 307.36,398.434 306.5,394.5 Z"/></g>
<g><path style="opacity:1" fill="#040903" d="M 417.5,395.5 C 416.793,398.786 416.46,402.119 416.5,405.5C 415.844,404.378 415.511,403.045 415.5,401.5C 415.361,399.117 416.028,397.117 417.5,395.5 Z"/></g>
<g><path style="opacity:1" fill="#030402" d="M 337.5,386.5 C 339.602,391.499 340.769,396.832 341,402.5C 341.333,451.167 341.667,499.833 342,548.5C 343.453,553.777 346.286,558.11 350.5,561.5C 345.353,559.175 342.187,555.175 341,549.5C 340.667,500.833 340.333,452.167 340,403.5C 339.358,397.793 338.525,392.127 337.5,386.5 Z"/></g>
<g><path style="opacity:1" fill="#040a05" d="M 306.5,408.5 C 305.833,411.167 304.167,412.833 301.5,413.5C 302.833,411.5 304.5,409.833 306.5,408.5 Z"/></g>
<g><path style="opacity:1" fill="#0f130e" d="M 416.5,405.5 C 418.084,408.426 420.084,411.092 422.5,413.5C 418.635,412.294 416.635,409.627 416.5,405.5 Z"/></g>
<g><path style="opacity:1" fill="#141610" d="M 301.5,413.5 C 299.211,415.387 296.545,416.721 293.5,417.5C 295.612,415.229 298.279,413.896 301.5,413.5 Z"/></g>
<g><path style="opacity:1" fill="#11150f" d="M 424.5,414.5 C 428.42,415.127 431.753,416.793 434.5,419.5C 430.849,418.341 427.515,416.674 424.5,414.5 Z"/></g>
<g><path style="opacity:1" fill="#171b14" d="M 473.5,414.5 C 479.167,418.167 483.833,422.833 487.5,428.5C 482.452,424.119 477.785,419.452 473.5,414.5 Z"/></g>
<g><path style="opacity:1" fill="#0d150c" d="M 251.5,413.5 C 246.5,419.167 241.167,424.5 235.5,429.5C 239.833,423.167 245.167,417.833 251.5,413.5 Z"/></g>
<g><path style="opacity:1" fill="#151812" d="M 487.5,428.5 C 489.914,429.911 491.581,431.911 492.5,434.5C 490.086,433.089 488.419,431.089 487.5,428.5 Z"/></g>
<g><path style="opacity:1" fill="#1b211b" d="M 452.5,432.5 C 459.5,437.5 465.5,443.5 470.5,450.5C 464.167,444.833 458.167,438.833 452.5,432.5 Z"/></g>
<g><path style="opacity:1" fill="#0c150c" d="M 492.5,434.5 C 494.587,435.585 495.92,437.251 496.5,439.5C 494.413,438.415 493.08,436.749 492.5,434.5 Z"/></g>
<g><path style="opacity:1" fill="#121611" d="M 661.5,447.5 C 649.389,446.03 637.389,446.697 625.5,449.5C 637.312,445.207 649.312,444.54 661.5,447.5 Z"/></g>
<g><path style="opacity:1" fill="#1b4b20" d="M 661.5,447.5 C 672.025,448.447 681.358,452.113 689.5,458.5C 693.452,463.119 697.785,467.452 702.5,471.5C 703.906,471.973 704.573,472.973 704.5,474.5C 705.659,478.151 707.326,481.485 709.5,484.5C 710.374,487.789 711.041,491.123 711.5,494.5C 701.75,494.806 692.084,494.473 682.5,493.5C 680.75,492.341 679.75,490.674 679.5,488.5C 677.167,484.167 673.833,480.833 669.5,478.5C 667.566,477.89 665.899,476.89 664.5,475.5C 661.748,473.126 658.748,472.459 655.5,473.5C 654.209,473.737 653.209,473.404 652.5,472.5C 653.129,471.558 651.795,471.225 648.5,471.5C 644.883,471.398 641.55,472.065 638.5,473.5C 634.21,475.491 629.876,477.491 625.5,479.5C 621.833,481.167 619.167,483.833 617.5,487.5C 615.485,490.869 613.485,494.202 611.5,497.5C 608.793,501.307 607.46,505.64 607.5,510.5C 606.835,513.649 606.502,516.982 606.5,520.5C 606.334,525.755 607.001,530.755 608.5,535.5C 609.738,537.214 610.405,539.214 610.5,541.5C 610.794,544.754 612.127,547.421 614.5,549.5C 616.262,550.262 617.262,551.596 617.5,553.5C 618.167,556.167 619.833,557.833 622.5,558.5C 625.709,560.265 628.709,562.265 631.5,564.5C 634.381,566.68 637.714,567.68 641.5,567.5C 652.096,570.102 661.762,568.102 670.5,561.5C 674.167,559.833 676.833,557.167 678.5,553.5C 680.751,551.854 682.418,549.687 683.5,547C 692.851,546.168 702.184,546.335 711.5,547.5C 709.693,552.923 707.693,558.257 705.5,563.5C 704.431,565.969 703.098,568.302 701.5,570.5C 697.167,572.833 693.833,576.167 691.5,580.5C 689.628,582.604 687.295,583.937 684.5,584.5C 681.515,585.326 678.849,586.659 676.5,588.5C 675.22,589.931 673.553,590.598 671.5,590.5C 657.233,593.954 642.899,594.288 628.5,591.5C 625.785,589.928 622.785,588.928 619.5,588.5C 613.662,586.754 608.662,583.754 604.5,579.5C 601.119,575.452 597.452,571.785 593.5,568.5C 588.965,564.104 585.965,558.77 584.5,552.5C 583.537,547.951 582.204,543.617 580.5,539.5C 576.742,518.094 579.742,497.761 589.5,478.5C 591.326,476.853 592.66,474.853 593.5,472.5C 597.88,465.786 603.547,460.452 610.5,456.5C 615.689,454.403 620.689,452.07 625.5,449.5C 637.389,446.697 649.389,446.03 661.5,447.5 Z"/></g>
<g><path style="opacity:1" fill="#0f140e" d="M 861.5,452.5 C 854.567,451.014 847.567,449.847 840.5,449C 821.503,448.5 802.503,448.333 783.5,448.5C 783.5,495.833 783.5,543.167 783.5,590.5C 804.833,590.5 826.167,590.5 847.5,590.5C 844.359,591.321 841.025,591.821 837.5,592C 819.17,592.5 800.836,592.667 782.5,592.5C 782.5,544.167 782.5,495.833 782.5,447.5C 802.169,447.333 821.836,447.5 841.5,448C 848.533,448.437 855.2,449.937 861.5,452.5 Z"/></g>
<g><path style="opacity:1" fill="#1b4b20" d="M 861.5,452.5 C 866.311,455.07 871.311,457.403 876.5,459.5C 879.511,460.669 882.178,462.336 884.5,464.5C 886.121,467.828 888.787,470.828 892.5,473.5C 894.262,474.262 895.262,475.596 895.5,477.5C 896.079,480.331 897.412,482.664 899.5,484.5C 902.26,492.723 904.593,500.389 906.5,507.5C 907.338,507.842 907.672,508.508 907.5,509.5C 907.541,523.67 905.541,537.67 901.5,551.5C 899.423,557.998 896.09,563.665 891.5,568.5C 891.565,568.062 891.399,567.728 891,567.5C 888.5,570 886,572.5 883.5,575C 883.728,575.399 884.062,575.565 884.5,575.5C 877.87,581.316 870.204,585.316 861.5,587.5C 856.651,588.216 851.985,589.216 847.5,590.5C 826.167,590.5 804.833,590.5 783.5,590.5C 783.5,543.167 783.5,495.833 783.5,448.5C 802.503,448.333 821.503,448.5 840.5,449C 847.567,449.847 854.567,451.014 861.5,452.5 Z"/></g>
<g><path style="opacity:1" fill="#070e07" d="M 730.5,447.5 C 740.167,447.5 749.833,447.5 759.5,447.5C 759.5,495.833 759.5,544.167 759.5,592.5C 749.833,592.5 740.167,592.5 730.5,592.5C 730.5,544.167 730.5,495.833 730.5,447.5 Z"/></g>
<g><path style="opacity:1" fill="#0f130e" d="M 625.5,449.5 C 620.689,452.07 615.689,454.403 610.5,456.5C 614.808,452.848 619.808,450.514 625.5,449.5 Z"/></g>
<g><path style="opacity:1" fill="#0c1109" d="M 861.5,452.5 C 867.192,453.514 872.192,455.848 876.5,459.5C 871.311,457.403 866.311,455.07 861.5,452.5 Z"/></g>
<g><path style="opacity:1" fill="#0e180c" d="M 689.5,458.5 C 694.855,461.855 699.188,466.188 702.5,471.5C 697.785,467.452 693.452,463.119 689.5,458.5 Z"/></g>
<g><path style="opacity:1" fill="#0b1308" d="M 508.5,457.5 C 510.924,460.008 512.59,463.008 513.5,466.5C 511.076,463.992 509.41,460.992 508.5,457.5 Z"/></g>
<g><path style="opacity:1" fill="#12160f" d="M 884.5,464.5 C 887.903,466.9 890.57,469.9 892.5,473.5C 888.787,470.828 886.121,467.828 884.5,464.5 Z"/></g>
<g><path style="opacity:1" fill="#131411" d="M 514.5,468.5 C 516.625,471.088 517.958,474.088 518.5,477.5C 516.375,474.912 515.042,471.912 514.5,468.5 Z"/></g>
<g><path style="opacity:1" fill="#020801" d="M 652.5,472.5 C 647.807,472.54 643.141,472.873 638.5,473.5C 641.55,472.065 644.883,471.398 648.5,471.5C 651.795,471.225 653.129,471.558 652.5,472.5 Z"/></g>
<g><path style="opacity:1" fill="#0d110b" d="M 655.5,473.5 C 658.748,472.459 661.748,473.126 664.5,475.5C 661.5,474.833 658.5,474.167 655.5,473.5 Z"/></g>
<g><path style="opacity:1" fill="#fdfefc" d="M 840.5,473.5 C 845.354,474.965 850.354,476.299 855.5,477.5C 857.663,479.083 859.996,480.416 862.5,481.5C 864.5,484.167 866.833,486.5 869.5,488.5C 872.46,494.084 875.127,499.751 877.5,505.5C 878.799,515.497 878.799,525.497 877.5,535.5C 874.46,543.236 870.127,550.236 864.5,556.5C 859.795,558.853 855.128,561.186 850.5,563.5C 837.567,565.201 824.567,565.868 811.5,565.5C 811.5,534.833 811.5,504.167 811.5,473.5C 821.167,473.5 830.833,473.5 840.5,473.5 Z"/></g>
<g><path style="opacity:1" fill="#0d150b" d="M 593.5,472.5 C 592.66,474.853 591.326,476.853 589.5,478.5C 589.845,475.802 591.178,473.802 593.5,472.5 Z"/></g>
<g><path style="opacity:1" fill="#0f120d" d="M 840.5,473.5 C 845.977,473.451 850.977,474.784 855.5,477.5C 850.354,476.299 845.354,474.965 840.5,473.5 Z"/></g>
<g><path style="opacity:1" fill="#0f150d" d="M 704.5,474.5 C 707.207,477.247 708.873,480.58 709.5,484.5C 707.326,481.485 705.659,478.151 704.5,474.5 Z"/></g>
<g><path style="opacity:1" fill="#0b1107" d="M 487.5,475.5 C 490.207,478.247 491.873,481.58 492.5,485.5C 490.326,482.485 488.659,479.151 487.5,475.5 Z"/></g>
<g><path style="opacity:1" fill="#10160e" d="M 237.5,473.5 C 236.008,477.818 234.008,481.818 231.5,485.5C 232.46,480.914 234.46,476.914 237.5,473.5 Z"/></g>
<g><path style="opacity:1" fill="#21241f" d="M 669.5,478.5 C 673.833,480.833 677.167,484.167 679.5,488.5C 675.833,485.5 672.5,482.167 669.5,478.5 Z"/></g>
<g><path style="opacity:1" fill="#11150f" d="M 895.5,477.5 C 897.588,479.336 898.921,481.669 899.5,484.5C 897.412,482.664 896.079,480.331 895.5,477.5 Z"/></g>
<g><path style="opacity:1" fill="#0c130b" d="M 204.5,479.5 C 204.267,482.542 203.267,485.208 201.5,487.5C 201.733,484.458 202.733,481.792 204.5,479.5 Z"/></g>
<g><path style="opacity:1" fill="#0b1008" d="M 625.5,479.5 C 623.167,482.5 620.5,485.167 617.5,487.5C 619.167,483.833 621.833,481.167 625.5,479.5 Z"/></g>
<g><path style="opacity:1" fill="#021103" d="M 862.5,481.5 C 865.833,482.833 868.167,485.167 869.5,488.5C 866.833,486.5 864.5,484.167 862.5,481.5 Z"/></g>
<g><path style="opacity:1" fill="#161916" d="M 520.5,482.5 C 522.806,486.085 524.139,490.085 524.5,494.5C 522.595,490.784 521.261,486.784 520.5,482.5 Z"/></g>
<g><path style="opacity:1" fill="#0f130c" d="M 899.5,484.5 C 903.619,491.532 905.953,499.198 906.5,507.5C 904.593,500.389 902.26,492.723 899.5,484.5 Z"/></g>
<g><path style="opacity:1" fill="#181d17" d="M 869.5,488.5 C 874.023,493.216 876.69,498.883 877.5,505.5C 875.127,499.751 872.46,494.084 869.5,488.5 Z"/></g>
<g><path style="opacity:1" fill="#161b15" d="M 589.5,478.5 C 579.742,497.761 576.742,518.094 580.5,539.5C 576.017,521.956 577.184,504.623 584,487.5C 585.357,484.102 587.19,481.102 589.5,478.5 Z"/></g>
<g><path style="opacity:1" fill="#131712" d="M 494.5,490.5 C 497.14,495.085 498.806,500.085 499.5,505.5C 497.261,500.784 495.595,495.784 494.5,490.5 Z"/></g>
<g><path style="opacity:1" fill="#142716" d="M 709.5,484.5 C 711.505,487.671 712.838,491.171 713.5,495C 713.167,495.333 712.833,495.667 712.5,496C 702.506,496.5 692.506,496.666 682.5,496.5C 682.5,495.5 682.5,494.5 682.5,493.5C 692.084,494.473 701.75,494.806 711.5,494.5C 711.041,491.123 710.374,487.789 709.5,484.5 Z"/></g>
<g><path style="opacity:1" fill="#0f140e" d="M 199.5,493.5 C 198.768,499.094 197.435,504.427 195.5,509.5C 195.917,503.83 197.251,498.497 199.5,493.5 Z"/></g>
<g><path style="opacity:1" fill="#181b17" d="M 611.5,497.5 C 610.537,502.049 609.204,506.383 607.5,510.5C 607.46,505.64 608.793,501.307 611.5,497.5 Z"/></g>
<g><path style="opacity:1" fill="#0e170d" d="M 230.5,487.5 C 228.34,494.647 226.006,501.647 223.5,508.5C 224.414,502.753 225.747,497.086 227.5,491.5C 228.521,490.099 229.521,488.765 230.5,487.5 Z"/></g>
<g><path style="opacity:1" fill="#111410" d="M 524.5,494.5 C 527.242,501.138 528.908,508.138 529.5,515.5C 527.531,509.263 525.864,502.263 524.5,494.5 Z"/></g>
<g><path style="opacity:1" fill="#040704" d="M 877.5,505.5 C 879.046,510.233 879.713,515.233 879.5,520.5C 879.713,525.767 879.046,530.767 877.5,535.5C 878.799,525.497 878.799,515.497 877.5,505.5 Z"/></g>
<g><path style="opacity:1" fill="#080b08" d="M 607.5,510.5 C 607.379,518.858 607.712,527.191 608.5,535.5C 607.001,530.755 606.334,525.755 606.5,520.5C 606.502,516.982 606.835,513.649 607.5,510.5 Z"/></g>
<g><path style="opacity:1" fill="#0a0e06" d="M 223.5,508.5 C 222.861,513.696 221.861,518.696 220.5,523.5C 220.369,518.152 221.369,513.152 223.5,508.5 Z"/></g>
<g><path style="opacity:1" fill="#0a0e0a" d="M 195.5,509.5 C 194.73,518.543 193.73,525.543 192.5,530.5C 192.33,523.203 193.33,516.203 195.5,509.5 Z"/></g>
<g><path style="opacity:1" fill="#090f07" d="M 499.5,505.5 C 501.22,509.557 502.386,513.89 503,518.5C 503.796,521.039 503.629,523.372 502.5,525.5C 501.759,518.794 500.759,512.128 499.5,505.5 Z"/></g>
<g><path style="opacity:1" fill="#235b29" d="M 732.5,448.5 C 732.5,495.5 732.5,542.5 732.5,589.5C 740.833,589.5 749.167,589.5 757.5,589.5C 757.5,542.5 757.5,495.5 757.5,448.5C 758.499,495.664 758.832,542.997 758.5,590.5C 749.5,590.5 740.5,590.5 731.5,590.5C 731.168,542.997 731.501,495.664 732.5,448.5 Z"/></g>
<g><path style="opacity:1" fill="#1b4c21" d="M 732.5,448.5 C 740.833,448.5 749.167,448.5 757.5,448.5C 757.5,495.5 757.5,542.5 757.5,589.5C 749.167,589.5 740.833,589.5 732.5,589.5C 732.5,542.5 732.5,495.5 732.5,448.5 Z"/></g>
<g><path style="opacity:1" fill="#0a0f08" d="M 580.5,539.5 C 582.204,543.617 583.537,547.951 584.5,552.5C 581.987,548.622 580.654,544.289 580.5,539.5 Z"/></g>
<g><path style="opacity:1" fill="#0a1108" d="M 610.5,541.5 C 612.341,543.849 613.674,546.515 614.5,549.5C 612.127,547.421 610.794,544.754 610.5,541.5 Z"/></g>
<g><path style="opacity:1" fill="#0b0e0a" d="M 705.5,563.5 C 707.693,558.257 709.693,552.923 711.5,547.5C 702.184,546.335 692.851,546.168 683.5,547C 682.418,549.687 680.751,551.854 678.5,553.5C 679.681,550.975 681.014,548.475 682.5,546C 692.494,545.5 702.494,545.334 712.5,545.5C 711.792,552.231 709.459,558.231 705.5,563.5 Z"/></g>
<g><path style="opacity:1" fill="#11200f" d="M 191.5,536.5 C 193.137,544.944 193.803,553.611 193.5,562.5C 191.928,554.051 191.261,545.384 191.5,536.5 Z"/></g>
<g><path style="opacity:1" fill="#0f110e" d="M 907.5,509.5 C 908.01,520.948 907.177,532.281 905,543.5C 904.295,546.476 903.129,549.142 901.5,551.5C 905.541,537.67 907.541,523.67 907.5,509.5 Z"/></g>
<g><path style="opacity:1" fill="#1d221c" d="M 530.5,517.5 C 533.352,535.036 533.019,552.37 529.5,569.5C 530.45,551.99 530.783,534.657 530.5,517.5 Z"/></g>
<g><path style="opacity:1" fill="#0b0f08" d="M 382.5,548.5 C 382.834,551.491 381.834,553.824 379.5,555.5C 380.264,552.982 381.264,550.649 382.5,548.5 Z"/></g>
<g><path style="opacity:1" fill="#080d07" d="M 219.5,533.5 C 219.564,544.541 220.231,555.541 221.5,566.5C 220.033,562.318 219.199,557.318 219,551.5C 218.181,545.319 218.347,539.319 219.5,533.5 Z"/></g>
<g><path style="opacity:1" fill="#021001" d="M 617.5,553.5 C 619.5,554.833 621.167,556.5 622.5,558.5C 619.833,557.833 618.167,556.167 617.5,553.5 Z"/></g>
<g><path style="opacity:1" fill="#081306" d="M 678.5,553.5 C 676.833,557.167 674.167,559.833 670.5,561.5C 672.833,558.5 675.5,555.833 678.5,553.5 Z"/></g>
<g><path style="opacity:1" fill="#11160f" d="M 379.5,555.5 C 378.5,558.5 376.5,560.5 373.5,561.5C 375.167,559.167 377.167,557.167 379.5,555.5 Z"/></g>
<g><path style="opacity:1" fill="#11130d" d="M 502.5,557.5 C 503.742,561.912 503.409,566.246 501.5,570.5C 501.739,566.158 502.073,561.824 502.5,557.5 Z"/></g>
<g><path style="opacity:1" fill="#10170f" d="M 864.5,556.5 C 860.683,560.409 856.016,562.742 850.5,563.5C 855.128,561.186 859.795,558.853 864.5,556.5 Z"/></g>
<g><path style="opacity:1" fill="#0e140d" d="M 670.5,561.5 C 661.762,568.102 652.096,570.102 641.5,567.5C 651.822,568.501 661.489,566.501 670.5,561.5 Z"/></g>
<g><path style="opacity:1" fill="#141713" d="M 352.5,562.5 C 355.67,563.084 358.837,563.75 362,564.5C 365.163,563.75 368.33,563.084 371.5,562.5C 365.15,566.421 358.816,566.421 352.5,562.5 Z"/></g>
<g><path style="opacity:1" fill="#090f06" d="M 631.5,564.5 C 635.048,565.13 638.381,566.13 641.5,567.5C 637.714,567.68 634.381,566.68 631.5,564.5 Z"/></g>
<g><path style="opacity:1" fill="#030603" d="M 850.5,563.5 C 847.097,564.925 843.43,565.758 839.5,566C 829.991,566.824 820.657,566.658 811.5,565.5C 824.567,565.868 837.567,565.201 850.5,563.5 Z"/></g>
<g><path style="opacity:1" fill="#070e05" d="M 891.5,568.5 C 889.5,571.167 887.167,573.5 884.5,575.5C 884.062,575.565 883.728,575.399 883.5,575C 886,572.5 888.5,570 891,567.5C 891.399,567.728 891.565,568.062 891.5,568.5 Z"/></g>
<g><path style="opacity:1" fill="#0e150c" d="M 593.5,568.5 C 597.452,571.785 601.119,575.452 604.5,579.5C 599.855,576.855 596.188,573.188 593.5,568.5 Z"/></g>
<g><path style="opacity:1" fill="#070c06" d="M 194.5,569.5 C 195.785,572.589 196.451,575.922 196.5,579.5C 194.989,576.456 194.322,573.122 194.5,569.5 Z"/></g>
<g><path style="opacity:1" fill="#181c17" d="M 701.5,570.5 C 698.5,574.167 695.167,577.5 691.5,580.5C 693.833,576.167 697.167,572.833 701.5,570.5 Z"/></g>
<g><path style="opacity:1" fill="#0a0c0a" d="M 501.5,570.5 C 501.58,573.781 500.913,576.781 499.5,579.5C 499.42,576.219 500.087,573.219 501.5,570.5 Z"/></g>
<g><path style="opacity:1" fill="#0a1008" d="M 529.5,569.5 C 529.066,577.225 527.4,584.559 524.5,591.5C 525.881,583.985 527.548,576.652 529.5,569.5 Z"/></g>
<g><path style="opacity:1" fill="#121512" d="M 499.5,579.5 C 498.335,586.665 496.002,593.331 492.5,599.5C 494.459,592.62 496.792,585.953 499.5,579.5 Z"/></g>
<g><path style="opacity:1" fill="#141713" d="M 222.5,572.5 C 225.001,580.012 227.335,587.679 229.5,595.5C 225.784,588.346 223.451,580.68 222.5,572.5 Z"/></g>
<g><path style="opacity:1" fill="#161815" d="M 684.5,584.5 C 682.421,586.873 679.754,588.206 676.5,588.5C 678.849,586.659 681.515,585.326 684.5,584.5 Z"/></g>
<g><path style="opacity:1" fill="#0a0e09" d="M 861.5,587.5 C 857.213,589.735 852.546,590.735 847.5,590.5C 851.985,589.216 856.651,588.216 861.5,587.5 Z"/></g>
<g><path style="opacity:1" fill="#181a18" d="M 619.5,588.5 C 622.785,588.928 625.785,589.928 628.5,591.5C 625.084,591.472 622.084,590.472 619.5,588.5 Z"/></g>
<g><path style="opacity:1" fill="#141814" d="M 198.5,588.5 C 200.739,593.216 202.405,598.216 203.5,603.5C 200.86,598.915 199.194,593.915 198.5,588.5 Z"/></g>
<g><path style="opacity:1" fill="#0b0e0a" d="M 671.5,590.5 C 663.883,593.325 655.883,594.659 647.5,594.5C 640.819,594.863 634.486,593.863 628.5,591.5C 642.899,594.288 657.233,593.954 671.5,590.5 Z"/></g>
<g><path style="opacity:1" fill="#131612" d="M 524.5,591.5 C 524.139,595.915 522.806,599.915 520.5,603.5C 521.261,599.216 522.595,595.216 524.5,591.5 Z"/></g>
<g><path style="opacity:1" fill="#141613" d="M 229.5,595.5 C 231.293,597.426 232.293,599.759 232.5,602.5C 230.707,600.574 229.707,598.241 229.5,595.5 Z"/></g>
<g><path style="opacity:1" fill="#132112" d="M 518.5,608.5 C 516.956,613.919 514.622,618.919 511.5,623.5C 513.017,618.131 515.351,613.131 518.5,608.5 Z"/></g>
<g><path style="opacity:1" fill="#0d150e" d="M 475.5,628.5 C 474.92,630.749 473.587,632.415 471.5,633.5C 472.08,631.251 473.413,629.585 475.5,628.5 Z"/></g>
<g><path style="opacity:1" fill="#171d15" d="M 251.5,632.5 C 257.833,638.167 263.833,644.167 269.5,650.5C 262.5,645.5 256.5,639.5 251.5,632.5 Z"/></g>
<g><path style="opacity:1" fill="#071505" d="M 471.5,633.5 C 466.5,640.5 460.5,646.5 453.5,651.5C 459.167,645.167 465.167,639.167 471.5,633.5 Z"/></g>
<g><path style="opacity:1" fill="#10180e" d="M 231.5,651.5 C 238.452,657.785 245.119,664.452 251.5,671.5C 243.854,665.854 237.188,659.188 231.5,651.5 Z"/></g>
<g><path style="opacity:1" fill="#10150f" d="M 489.5,655.5 C 484.833,660.833 479.833,665.833 474.5,670.5C 478.735,664.758 483.568,659.425 489,654.5C 489.399,654.728 489.565,655.062 489.5,655.5 Z"/></g>
<g><path style="opacity:1" fill="#121610" d="M 290.5,665.5 C 296.151,667.659 301.484,670.326 306.5,673.5C 300.581,671.874 295.247,669.207 290.5,665.5 Z"/></g>
<g><path style="opacity:1" fill="#101710" d="M 435.5,664.5 C 433.664,666.588 431.331,667.921 428.5,668.5C 430.336,666.412 432.669,665.079 435.5,664.5 Z"/></g>
<g><path style="opacity:1" fill="#0a1307" d="M 251.5,671.5 C 253.749,672.08 255.415,673.413 256.5,675.5C 254.251,674.92 252.585,673.587 251.5,671.5 Z"/></g>
<g><path style="opacity:1" fill="#131712" d="M 415.5,674.5 C 409.052,678.205 402.052,680.538 394.5,681.5C 401.353,678.994 408.353,676.66 415.5,674.5 Z"/></g>
<g><path style="opacity:1" fill="#131612" d="M 316.5,677.5 C 321.438,678.231 326.105,679.565 330.5,681.5C 325.471,681.08 320.805,679.746 316.5,677.5 Z"/></g>
<g><path style="opacity:1" fill="#080a05" d="M 330.5,681.5 C 336.669,682.271 342.669,683.271 348.5,684.5C 342.165,684.762 336.165,683.762 330.5,681.5 Z"/></g>
<g><path style="opacity:1" fill="#0e100b" d="M 394.5,681.5 C 389.127,683.452 383.46,684.452 377.5,684.5C 382.948,682.98 388.614,681.98 394.5,681.5 Z"/></g>
<g><path style="opacity:1" fill="#111610" d="M 278.5,690.5 C 281.992,691.41 284.992,693.076 287.5,695.5C 284.008,694.59 281.008,692.924 278.5,690.5 Z"/></g>
<g><path style="opacity:1" fill="#131611" d="M 445.5,690.5 C 440.086,694.54 434.086,697.54 427.5,699.5C 433.182,695.992 439.182,692.992 445.5,690.5 Z"/></g>
<g><path style="opacity:1" fill="#0d110b" d="M 289.5,696.5 C 292.241,696.707 294.574,697.707 296.5,699.5C 293.759,699.293 291.426,698.293 289.5,696.5 Z"/></g>
<g><path style="opacity:1" fill="#131610" d="M 296.5,699.5 C 300.137,700.263 303.47,701.597 306.5,703.5C 302.703,703.128 299.37,701.794 296.5,699.5 Z"/></g>
<g><path style="opacity:1" fill="#161915" d="M 419.5,702.5 C 416.916,704.472 413.916,705.472 410.5,705.5C 413.215,703.928 416.215,702.928 419.5,702.5 Z"/></g>
<g><path style="opacity:1" fill="#0e100d" d="M 312.5,705.5 C 315.152,705.41 317.485,706.076 319.5,707.5C 316.848,707.59 314.515,706.924 312.5,705.5 Z"/></g>
<g><path style="opacity:1" fill="#040b04" d="M 410.5,705.5 C 405.503,707.749 400.17,709.083 394.5,709.5C 399.573,707.565 404.906,706.232 410.5,705.5 Z"/></g>
<g><path style="opacity:1" fill="#040704" d="M 328.5,710.5 C 329.097,709.861 329.93,709.528 331,709.5C 334.301,709.837 336.801,710.504 338.5,711.5C 335.14,711.384 331.807,711.051 328.5,710.5 Z"/></g>
<g><path style="opacity:1" fill="#060d04" d="M 394.5,709.5 C 390.433,711.054 386.1,711.72 381.5,711.5C 385.618,710.291 389.951,709.624 394.5,709.5 Z"/></g>
<g><path style="opacity:1" fill="#0e120d" d="M 340.5,712.5 C 353.994,712.693 367.66,712.36 381.5,711.5C 368.031,713.775 354.364,714.108 340.5,712.5 Z"/></g>
</svg>
