<?xml version="1.0" encoding="UTF-8"?>
<!DOCTYPE svg PUBLIC "-//W3C//DTD SVG 1.1//EN" "http://www.w3.org/Graphics/SVG/1.1/DTD/svg11.dtd">
<svg xmlns="http://www.w3.org/2000/svg" version="1.1" width="500px" height="500px" style="shape-rendering:geometricPrecision; text-rendering:geometricPrecision; image-rendering:optimizeQuality; fill-rule:evenodd; clip-rule:evenodd" xmlns:xlink="http://www.w3.org/1999/xlink">
<g><path style="opacity:0.137" fill="#acbbad" d="M 133.5,79.5 C 130.375,80.4794 127.042,80.8128 123.5,80.5C 124.172,79.7326 125.005,79.0659 126,78.5C 128.381,79.435 130.881,79.7683 133.5,79.5 Z"/></g>
<g><path style="opacity:1" fill="#113c1f" d="M 158.5,101.5 C 158.082,102.222 157.416,102.722 156.5,103C 157.576,104.726 157.743,106.559 157,108.5C 155.365,109.726 153.865,111.059 152.5,112.5C 155.031,114.594 155.864,117.261 155,120.5C 153.731,119.095 153.231,117.429 153.5,115.5C 152.325,115.719 151.325,115.386 150.5,114.5C 149.985,112.775 149.318,111.108 148.5,109.5C 146.998,108.917 145.665,108.084 144.5,107C 144.833,106.667 145.167,106.333 145.5,106C 142.059,103.589 139.559,100.422 138,96.5C 136.933,95.8095 135.766,95.3095 134.5,95C 134.07,94.0805 133.736,93.2472 133.5,92.5C 132.702,92.9569 132.369,93.6236 132.5,94.5C 131.833,94.5 131.5,94.1667 131.5,93.5C 131.974,89.7326 130.641,86.8993 127.5,85C 127.63,83.9412 128.13,83.1079 129,82.5C 133.683,83.0291 138.516,83.8624 143.5,85C 145.973,86.6266 148.473,87.1266 151,86.5C 153.795,87.1852 156.628,87.6852 159.5,88C 161.754,89.0539 162.087,90.5539 160.5,92.5C 155.664,93.3575 150.998,94.6908 146.5,96.5C 143.835,95.1116 142.835,96.1116 143.5,99.5C 145.666,99.4211 147.666,98.7545 149.5,97.5C 151.347,98.511 153.18,99.511 155,100.5C 155.414,100.043 155.914,99.7093 156.5,99.5C 157.182,100.243 157.849,100.909 158.5,101.5 Z"/></g>
<g><path style="opacity:1" fill="#1d3d25" d="M 133.5,79.5 C 151.64,80.5815 169.306,86.0815 186.5,96C 191.018,98.7042 195.018,101.871 198.5,105.5C 197.175,104.047 196.342,104.381 196,106.5C 193.333,103.833 190.667,101.167 188,98.5C 186.989,99.3366 185.822,99.67 184.5,99.5C 184.5,98.5 184.5,97.5 184.5,96.5C 178.477,95.9653 172.977,94.632 168,92.5C 167.075,93.0465 166.242,93.7132 165.5,94.5C 166.811,95.2575 167.311,96.2575 167,97.5C 164.877,95.3276 162.711,95.161 160.5,97C 166.793,99.1442 172.46,102.311 177.5,106.5C 179.105,107.43 180.605,107.43 182,106.5C 185.118,110.479 187.951,110.146 190.5,105.5C 191.862,107.012 192.196,108.512 191.5,110C 193.547,111.073 195.547,112.239 197.5,113.5C 196.02,114.113 194.687,114.446 193.5,114.5C 195.02,117.578 196.687,120.578 198.5,123.5C 198.376,124.107 198.043,124.44 197.5,124.5C 190.253,118.199 182.586,112.366 174.5,107C 173.5,106.333 172.5,106.333 171.5,107C 176.311,109.985 180.644,113.485 184.5,117.5C 183.504,117.414 182.671,117.748 182,118.5C 179.046,115.209 175.546,112.709 171.5,111C 169.926,109.174 169.093,107.007 169,104.5C 164.664,106.274 161.664,104.941 160,100.5C 159.617,101.056 159.117,101.389 158.5,101.5C 157.849,100.909 157.182,100.243 156.5,99.5C 155.914,99.7093 155.414,100.043 155,100.5C 153.18,99.511 151.347,98.511 149.5,97.5C 147.666,98.7545 145.666,99.4211 143.5,99.5C 142.835,96.1116 143.835,95.1116 146.5,96.5C 150.998,94.6908 155.664,93.3575 160.5,92.5C 162.087,90.5539 161.754,89.0539 159.5,88C 156.628,87.6852 153.795,87.1852 151,86.5C 148.473,87.1266 145.973,86.6266 143.5,85C 138.516,83.8624 133.683,83.0291 129,82.5C 128.13,83.1079 127.63,83.9412 127.5,85C 130.641,86.8993 131.974,89.7326 131.5,93.5C 128.399,89.4887 125.399,85.3221 122.5,81C 122.728,80.6012 123.062,80.4346 123.5,80.5C 127.042,80.8128 130.375,80.4794 133.5,79.5 Z"/></g>
<g><path style="opacity:1" fill="#113b1e" d="M 198.5,105.5 C 201.738,106.738 204.404,108.738 206.5,111.5C 208.153,115.493 209.82,119.493 211.5,123.5C 212.578,125.997 214.411,127.663 217,128.5C 217.72,130.112 217.554,131.612 216.5,133C 219.835,135.759 220.668,138.926 219,142.5C 216.149,145.328 214.649,144.662 214.5,140.5C 214.709,139.006 215.376,137.839 216.5,137C 215.007,135.632 213.507,135.465 212,136.5C 211.667,135.5 211.333,134.5 211,133.5C 210.667,133.833 210.333,134.167 210,134.5C 207.553,130.647 204.053,128.313 199.5,127.5C 198.449,126.778 197.782,125.778 197.5,124.5C 198.043,124.44 198.376,124.107 198.5,123.5C 196.687,120.578 195.02,117.578 193.5,114.5C 194.687,114.446 196.02,114.113 197.5,113.5C 195.547,112.239 193.547,111.073 191.5,110C 192.196,108.512 191.862,107.012 190.5,105.5C 187.951,110.146 185.118,110.479 182,106.5C 180.605,107.43 179.105,107.43 177.5,106.5C 172.46,102.311 166.793,99.1442 160.5,97C 162.711,95.161 164.877,95.3276 167,97.5C 167.311,96.2575 166.811,95.2575 165.5,94.5C 166.242,93.7132 167.075,93.0465 168,92.5C 172.977,94.632 178.477,95.9653 184.5,96.5C 184.5,97.5 184.5,98.5 184.5,99.5C 185.822,99.67 186.989,99.3366 188,98.5C 190.667,101.167 193.333,103.833 196,106.5C 196.342,104.381 197.175,104.047 198.5,105.5 Z"/></g>
<g><path style="opacity:1" fill="#103c1e" d="M 311.5,113.5 C 309.43,113.449 307.597,114.115 306,115.5C 304.121,113.987 301.954,113.321 299.5,113.5C 298.969,116.779 296.969,118.113 293.5,117.5C 293.849,120.463 292.849,122.796 290.5,124.5C 288.338,122.98 286.005,121.98 283.5,121.5C 283.22,124.388 284.553,125.888 287.5,126C 282.977,131.284 278.477,135.784 274,139.5C 272.459,137.983 270.625,136.816 268.5,136C 272.902,135.185 276.568,132.685 279.5,128.5C 276.628,125.625 274.794,126.291 274,130.5C 273,131.833 272,131.833 271,130.5C 270.667,131.167 270.333,131.833 270,132.5C 269.51,131.207 269.343,129.873 269.5,128.5C 271.117,127.411 271.95,125.744 272,123.5C 273.962,123.969 275.795,123.303 277.5,121.5C 279.117,118.216 281.45,115.549 284.5,113.5C 290.082,110.685 295.749,108.018 301.5,105.5C 303.176,106.183 303.843,107.517 303.5,109.5C 305.833,109.5 308.167,109.5 310.5,109.5C 310.5,108.167 310.5,106.833 310.5,105.5C 304.102,104.898 304.102,103.565 310.5,101.5C 313.149,101.08 315.816,101.58 318.5,103C 316.833,103.333 315.167,103.667 313.5,104C 315.305,105.441 317.305,105.608 319.5,104.5C 319.704,109.148 317.371,111.481 312.5,111.5C 312.137,112.183 311.804,112.85 311.5,113.5 Z"/></g>
<g><path style="opacity:1" fill="#153c21" d="M 325.5,142.5 C 324.262,141.588 322.928,141.421 321.5,142C 321.833,142.333 322.167,142.667 322.5,143C 320.479,143.513 318.979,144.68 318,146.5C 317.333,145.833 316.667,145.167 316,144.5C 314.796,145.471 314.296,146.471 314.5,147.5C 313.614,146.675 313.281,145.675 313.5,144.5C 311.738,144.357 310.071,144.691 308.5,145.5C 307.579,143.244 305.912,142.244 303.5,142.5C 303.5,141.5 303.5,140.5 303.5,139.5C 308.838,138.397 308.672,137.397 303,136.5C 301,137.167 299,137.833 297,138.5C 295.05,138.293 293.884,137.293 293.5,135.5C 294.954,134.48 295.287,133.313 294.5,132C 297.729,131.644 299.229,129.81 299,126.5C 300.609,125.853 302.109,125.02 303.5,124C 302.944,123.617 302.611,123.117 302.5,122.5C 302.5,121.833 302.833,121.5 303.5,121.5C 303.735,122.097 304.235,122.43 305,122.5C 308.131,120.184 311.631,118.851 315.5,118.5C 315.561,116.408 316.561,114.908 318.5,114C 317.423,113.53 316.423,113.697 315.5,114.5C 315.167,113.167 314.833,113.167 314.5,114.5C 313.609,113.89 312.609,113.557 311.5,113.5C 311.804,112.85 312.137,112.183 312.5,111.5C 317.371,111.481 319.704,109.148 319.5,104.5C 317.305,105.608 315.305,105.441 313.5,104C 315.167,103.667 316.833,103.333 318.5,103C 315.816,101.58 313.149,101.08 310.5,101.5C 304.102,103.565 304.102,104.898 310.5,105.5C 310.5,106.833 310.5,108.167 310.5,109.5C 308.167,109.5 305.833,109.5 303.5,109.5C 303.843,107.517 303.176,106.183 301.5,105.5C 300.89,104.609 300.557,103.609 300.5,102.5C 300.611,101.883 300.944,101.383 301.5,101C 310.27,98.4464 318.937,95.613 327.5,92.5C 328.086,92.7093 328.586,93.0426 329,93.5C 336.524,91.5529 344.024,90.2195 351.5,89.5C 354.039,90.1153 356.539,90.7819 359,91.5C 354.769,105.625 348.103,118.625 339,130.5C 334.926,135.079 330.426,139.079 325.5,142.5 Z"/></g>
<g><path style="opacity:1" fill="#143c21" d="M 158.5,101.5 C 159.117,101.389 159.617,101.056 160,100.5C 161.664,104.941 164.664,106.274 169,104.5C 169.093,107.007 169.926,109.174 171.5,111C 175.546,112.709 179.046,115.209 182,118.5C 182.671,117.748 183.504,117.414 184.5,117.5C 193.519,125.187 201.519,133.854 208.5,143.5C 204.47,143.947 200.97,145.947 198,149.5C 196.657,148.786 195.324,149.12 194,150.5C 191.939,148.194 189.772,146.027 187.5,144C 185.167,143.333 182.833,143.333 180.5,144C 184.469,144.8 187.469,146.966 189.5,150.5C 189.44,151.043 189.107,151.376 188.5,151.5C 185.946,149.056 182.946,147.389 179.5,146.5C 178.684,143.453 176.684,141.787 173.5,141.5C 175.276,140.685 175.943,139.518 175.5,138C 174.101,137.405 172.768,137.572 171.5,138.5C 169.358,136.095 166.691,134.762 163.5,134.5C 163.33,133.178 163.663,132.011 164.5,131C 161.74,130.326 159.073,129.493 156.5,128.5C 147.685,118.378 139.685,107.045 132.5,94.5C 132.369,93.6236 132.702,92.9569 133.5,92.5C 133.736,93.2472 134.07,94.0805 134.5,95C 135.766,95.3095 136.933,95.8095 138,96.5C 139.559,100.422 142.059,103.589 145.5,106C 145.167,106.333 144.833,106.667 144.5,107C 145.665,108.084 146.998,108.917 148.5,109.5C 149.318,111.108 149.985,112.775 150.5,114.5C 151.325,115.386 152.325,115.719 153.5,115.5C 153.231,117.429 153.731,119.095 155,120.5C 155.864,117.261 155.031,114.594 152.5,112.5C 153.865,111.059 155.365,109.726 157,108.5C 157.743,106.559 157.576,104.726 156.5,103C 157.416,102.722 158.082,102.222 158.5,101.5 Z"/></g>
<g><path style="opacity:1" fill="#173e22" d="M 293.5,135.5 C 293.884,137.293 295.05,138.293 297,138.5C 299,137.833 301,137.167 303,136.5C 308.672,137.397 308.838,138.397 303.5,139.5C 303.5,140.5 303.5,141.5 303.5,142.5C 305.912,142.244 307.579,143.244 308.5,145.5C 310.071,144.691 311.738,144.357 313.5,144.5C 313.281,145.675 313.614,146.675 314.5,147.5C 314.296,146.471 314.796,145.471 316,144.5C 316.667,145.167 317.333,145.833 318,146.5C 318.979,144.68 320.479,143.513 322.5,143C 322.167,142.667 321.833,142.333 321.5,142C 322.928,141.421 324.262,141.588 325.5,142.5C 310.022,154.404 292.689,162.904 273.5,168C 268.413,170.19 263.746,173.023 259.5,176.5C 258.432,175.566 257.099,175.232 255.5,175.5C 256.096,173.602 256.096,171.935 255.5,170.5C 254.928,171.973 254.095,173.307 253,174.5C 252.683,172.699 252.016,172.366 251,173.5C 250.517,174.448 250.351,175.448 250.5,176.5C 249.127,176.657 247.793,176.49 246.5,176C 247.423,173.959 247.756,171.792 247.5,169.5C 247.393,167.621 247.893,167.288 249,168.5C 249.176,165.118 249.676,161.785 250.5,158.5C 253.688,153.345 256.354,148.012 258.5,142.5C 261.134,140.031 263.634,137.364 266,134.5C 266.944,135.263 267.444,136.263 267.5,137.5C 265.729,140.916 264.729,144.582 264.5,148.5C 260.578,146.663 259.578,147.83 261.5,152C 260.158,154.499 258.992,154.665 258,152.5C 256.719,152.381 255.552,152.881 254.5,154C 257.167,154.667 257.167,155.333 254.5,156C 255.578,156.674 256.245,157.674 256.5,159C 255.841,161.462 255.507,163.962 255.5,166.5C 256.301,168.793 256.968,168.46 257.5,165.5C 263.439,157.235 270.439,149.235 278.5,141.5C 278.905,142.55 279.571,142.55 280.5,141.5C 281.386,140.675 281.719,139.675 281.5,138.5C 281.5,137.833 281.833,137.5 282.5,137.5C 285.981,136.768 289.314,135.434 292.5,133.5C 293.298,133.957 293.631,134.624 293.5,135.5 Z M 282.5,137.5 C 281.833,137.5 281.5,137.833 281.5,138.5C 280.711,138.217 280.044,137.717 279.5,137C 280.749,136.26 281.749,136.427 282.5,137.5 Z M 278.5,141.5 C 270.439,149.235 263.439,157.235 257.5,165.5C 259.704,160.103 262.704,155.103 266.5,150.5C 270.431,146.613 274.264,142.613 278,138.5C 278.75,139.126 279.584,139.626 280.5,140C 279.584,140.278 278.918,140.778 278.5,141.5 Z M 257.5,165.5 C 256.968,168.46 256.301,168.793 255.5,166.5C 256.167,166.167 256.833,165.833 257.5,165.5 Z"/></g>
<g><path style="opacity:1" fill="#1c3e25" d="M 311.5,113.5 C 312.609,113.557 313.609,113.89 314.5,114.5C 314.833,114.5 315.167,114.5 315.5,114.5C 316.423,113.697 317.423,113.53 318.5,114C 316.561,114.908 315.561,116.408 315.5,118.5C 311.631,118.851 308.131,120.184 305,122.5C 304.235,122.43 303.735,122.097 303.5,121.5C 303.5,121.167 303.5,120.833 303.5,120.5C 301.576,120.711 301.243,121.377 302.5,122.5C 302.611,123.117 302.944,123.617 303.5,124C 302.109,125.02 300.609,125.853 299,126.5C 299.229,129.81 297.729,131.644 294.5,132C 295.287,133.313 294.954,134.48 293.5,135.5C 293.631,134.624 293.298,133.957 292.5,133.5C 289.314,135.434 285.981,136.768 282.5,137.5C 281.749,136.427 280.749,136.26 279.5,137C 280.044,137.717 280.711,138.217 281.5,138.5C 281.719,139.675 281.386,140.675 280.5,141.5C 279.571,142.55 278.905,142.55 278.5,141.5C 278.918,140.778 279.584,140.278 280.5,140C 279.584,139.626 278.75,139.126 278,138.5C 274.264,142.613 270.431,146.613 266.5,150.5C 262.704,155.103 259.704,160.103 257.5,165.5C 256.833,165.833 256.167,166.167 255.5,166.5C 255.507,163.962 255.841,161.462 256.5,159C 256.245,157.674 255.578,156.674 254.5,156C 257.167,155.333 257.167,154.667 254.5,154C 255.552,152.881 256.719,152.381 258,152.5C 258.992,154.665 260.158,154.499 261.5,152C 259.578,147.83 260.578,146.663 264.5,148.5C 264.729,144.582 265.729,140.916 267.5,137.5C 267.444,136.263 266.944,135.263 266,134.5C 263.634,137.364 261.134,140.031 258.5,142.5C 258.729,140.567 259.562,138.9 261,137.5C 262.713,136.122 264.047,134.455 265,132.5C 265.414,132.957 265.914,133.291 266.5,133.5C 267.001,131.345 268.001,129.678 269.5,128.5C 269.343,129.873 269.51,131.207 270,132.5C 270.333,131.833 270.667,131.167 271,130.5C 272,131.833 273,131.833 274,130.5C 274.794,126.291 276.628,125.625 279.5,128.5C 276.568,132.685 272.902,135.185 268.5,136C 270.625,136.816 272.459,137.983 274,139.5C 278.477,135.784 282.977,131.284 287.5,126C 284.553,125.888 283.22,124.388 283.5,121.5C 286.005,121.98 288.338,122.98 290.5,124.5C 292.849,122.796 293.849,120.463 293.5,117.5C 296.969,118.113 298.969,116.779 299.5,113.5C 301.954,113.321 304.121,113.987 306,115.5C 307.597,114.115 309.43,113.449 311.5,113.5 Z M 286.5,130.5 C 287.776,131.386 287.776,132.386 286.5,133.5C 285.468,135.04 284.135,135.54 282.5,135C 284.192,133.693 285.525,132.193 286.5,130.5 Z M 294.5,126.5 C 293.196,128.982 291.196,130.149 288.5,130C 290.391,128.558 292.391,127.391 294.5,126.5 Z M 299.5,123.5 C 298.035,124.737 296.368,125.737 294.5,126.5C 295.3,124.259 296.966,123.259 299.5,123.5 Z M 303.5,120.5 C 303.5,120.833 303.5,121.167 303.5,121.5C 302.833,121.5 302.5,121.833 302.5,122.5C 301.243,121.377 301.576,120.711 303.5,120.5 Z"/></g>
<g><path style="opacity:1" fill="#173d21" d="M 206.5,111.5 C 218.418,123.655 225.751,137.988 228.5,154.5C 226.285,155.924 225.285,158.091 225.5,161C 225.748,162.716 226.415,164.216 227.5,165.5C 225.953,165.207 224.286,165.707 222.5,167C 223.38,168.356 223.714,169.856 223.5,171.5C 222.448,171.649 221.448,171.483 220.5,171C 220.833,170.667 221.167,170.333 221.5,170C 219.799,167.61 217.466,166.11 214.5,165.5C 212.356,162.366 209.356,160.533 205.5,160C 202.573,155.87 198.573,153.87 193.5,154C 192.468,152.373 191.134,151.207 189.5,150.5C 187.469,146.966 184.469,144.8 180.5,144C 182.833,143.333 185.167,143.333 187.5,144C 189.772,146.027 191.939,148.194 194,150.5C 195.324,149.12 196.657,148.786 198,149.5C 200.97,145.947 204.47,143.947 208.5,143.5C 211.552,146.576 214.386,149.91 217,153.5C 216.243,150.912 215.243,148.246 214,145.5C 209.387,139.247 204.554,133.247 199.5,127.5C 204.053,128.313 207.553,130.647 210,134.5C 210.333,134.167 210.667,133.833 211,133.5C 211.333,134.5 211.667,135.5 212,136.5C 213.507,135.465 215.007,135.632 216.5,137C 215.376,137.839 214.709,139.006 214.5,140.5C 214.649,144.662 216.149,145.328 219,142.5C 220.668,138.926 219.835,135.759 216.5,133C 217.554,131.612 217.72,130.112 217,128.5C 214.411,127.663 212.578,125.997 211.5,123.5C 209.82,119.493 208.153,115.493 206.5,111.5 Z"/></g>
<g><path style="opacity:1" fill="#234029" d="M 300.5,102.5 C 300.557,103.609 300.89,104.609 301.5,105.5C 295.749,108.018 290.082,110.685 284.5,113.5C 281.45,115.549 279.117,118.216 277.5,121.5C 275.795,123.303 273.962,123.969 272,123.5C 271.95,125.744 271.117,127.411 269.5,128.5C 268.001,129.678 267.001,131.345 266.5,133.5C 265.914,133.291 265.414,132.957 265,132.5C 264.047,134.455 262.713,136.122 261,137.5C 259.562,138.9 258.729,140.567 258.5,142.5C 256.354,148.012 253.688,153.345 250.5,158.5C 249.676,161.785 249.176,165.118 249,168.5C 247.893,167.288 247.393,167.621 247.5,169.5C 245.571,168.777 244.571,169.777 244.5,172.5C 245.356,177.697 245.023,182.863 243.5,188C 241.114,190.801 239.28,193.967 238,197.5C 237.517,196.552 237.351,195.552 237.5,194.5C 233.41,194.543 232.743,195.876 235.5,198.5C 236.131,202.677 236.797,206.844 237.5,211C 237.075,217.447 237.075,223.947 237.5,230.5C 236.497,219.06 234.664,207.393 232,195.5C 225.519,175.355 212.019,162.188 191.5,156C 177.9,149.227 166.233,140.06 156.5,128.5C 159.073,129.493 161.74,130.326 164.5,131C 163.663,132.011 163.33,133.178 163.5,134.5C 166.691,134.762 169.358,136.095 171.5,138.5C 172.768,137.572 174.101,137.405 175.5,138C 175.943,139.518 175.276,140.685 173.5,141.5C 176.684,141.787 178.684,143.453 179.5,146.5C 182.946,147.389 185.946,149.056 188.5,151.5C 189.107,151.376 189.44,151.043 189.5,150.5C 191.134,151.207 192.468,152.373 193.5,154C 198.573,153.87 202.573,155.87 205.5,160C 209.356,160.533 212.356,162.366 214.5,165.5C 217.466,166.11 219.799,167.61 221.5,170C 221.167,170.333 220.833,170.667 220.5,171C 221.448,171.483 222.448,171.649 223.5,171.5C 223.714,169.856 223.38,168.356 222.5,167C 224.286,165.707 225.953,165.207 227.5,165.5C 226.415,164.216 225.748,162.716 225.5,161C 225.285,158.091 226.285,155.924 228.5,154.5C 231.231,165.832 234.731,176.832 239,187.5C 240.275,183.675 241.442,180.175 242.5,177C 247.211,154.159 258.211,134.159 275.5,117C 280.558,112.943 285.892,109.276 291.5,106C 294.279,104.278 297.279,103.111 300.5,102.5 Z"/></g>
<g><path style="opacity:1" fill="#173921" d="M 247.5,169.5 C 247.756,171.792 247.423,173.959 246.5,176C 247.793,176.49 249.127,176.657 250.5,176.5C 250.351,175.448 250.517,174.448 251,173.5C 252.016,172.366 252.683,172.699 253,174.5C 254.095,173.307 254.928,171.973 255.5,170.5C 256.096,171.935 256.096,173.602 255.5,175.5C 257.099,175.232 258.432,175.566 259.5,176.5C 252.913,182.87 248.913,190.37 247.5,199C 246.261,209.344 246.261,219.844 247.5,230.5C 246.515,234.634 246.182,238.968 246.5,243.5C 245.224,241.438 244.39,239.104 244,236.5C 243.8,232.247 243.3,228.08 242.5,224C 243.097,222.111 243.431,220.278 243.5,218.5C 241.96,217.468 241.46,216.135 242,214.5C 242.333,215.167 242.667,215.833 243,216.5C 243.442,211.427 243.776,206.427 244,201.5C 242.309,204.131 241.142,203.797 240.5,200.5C 237.021,202.484 236.521,205.151 239,208.5C 239.202,225.021 239.702,241.521 240.5,258C 238.694,272.521 237.361,287.021 236.5,301.5C 236.57,302.772 236.903,303.938 237.5,305C 239.869,305.314 242.036,306.148 244,307.5C 244.945,307.095 245.612,306.428 246,305.5C 247.037,293.033 247.87,280.7 248.5,268.5C 249.423,272.064 249.756,275.731 249.5,279.5C 248.167,285.167 248.167,290.833 249.5,296.5C 249.216,299.777 249.549,302.943 250.5,306C 247.692,311.229 243.359,312.896 237.5,311C 233.904,307.265 232.571,302.765 233.5,297.5C 235.388,295.012 236.055,292.012 235.5,288.5C 236.833,281.167 236.833,273.833 235.5,266.5C 237.436,253.96 238.102,241.96 237.5,230.5C 237.075,223.947 237.075,217.447 237.5,211C 236.797,206.844 236.131,202.677 235.5,198.5C 232.743,195.876 233.41,194.543 237.5,194.5C 237.351,195.552 237.517,196.552 238,197.5C 239.28,193.967 241.114,190.801 243.5,188C 245.023,182.863 245.356,177.697 244.5,172.5C 244.571,169.777 245.571,168.777 247.5,169.5 Z"/></g>
<g><path style="opacity:1" fill="#193d22" d="M 337.5,251.5 C 337.27,254.694 337.936,257.694 339.5,260.5C 339.456,263.41 338.29,264.41 336,263.5C 335.833,264 335.667,264.5 335.5,265C 337.282,266.678 337.615,268.511 336.5,270.5C 335.328,270.081 334.328,269.415 333.5,268.5C 332.512,265.55 331.679,262.55 331,259.5C 330,257.833 328.667,256.5 327,255.5C 326.316,254.216 326.483,253.049 327.5,252C 325.636,250.569 323.636,249.403 321.5,248.5C 315.245,239.989 307.911,232.322 299.5,225.5C 290.941,220.636 282.441,215.636 274,210.5C 271.806,204.908 273.806,201.574 280,200.5C 304.746,209.571 323.746,225.571 337,248.5C 337.483,249.448 337.649,250.448 337.5,251.5 Z"/></g>
<g><path style="opacity:1" fill="#1d3d25" d="M 153.5,293.5 C 152.551,286.67 152.551,279.67 153.5,272.5C 153.57,268.065 154.57,263.898 156.5,260C 155.552,259.517 154.552,259.351 153.5,259.5C 153.5,258.167 153.5,256.833 153.5,255.5C 156.337,255.636 159.004,254.969 161.5,253.5C 164.178,250.127 166.844,246.794 169.5,243.5C 170.482,240.904 171.149,238.238 171.5,235.5C 176.355,235.034 178.355,232.534 177.5,228C 175.167,227.333 172.833,227.333 170.5,228C 165.504,232.763 162.504,238.596 161.5,245.5C 157.625,244.874 155.791,246.541 156,250.5C 154.237,253.02 152.237,255.353 150,257.5C 147.18,264.163 144.68,270.829 142.5,277.5C 149.441,243.043 168.941,218.376 201,203.5C 203.846,203.082 206.68,203.748 209.5,205.5C 210.244,206.991 210.91,208.491 211.5,210C 210.773,211.399 210.273,212.899 210,214.5C 175.358,230.2 156.524,256.533 153.5,293.5 Z"/></g>
<g><path style="opacity:0.302" fill="#8c9f90" d="M 247.5,230.5 C 248.618,235.186 248.618,239.853 247.5,244.5C 246.833,244.5 246.5,244.167 246.5,243.5C 246.182,238.968 246.515,234.634 247.5,230.5 Z"/></g>
<g><path style="opacity:1" fill="#113b1e" d="M 246.5,243.5 C 246.5,244.167 246.833,244.5 247.5,244.5C 248.644,252.609 248.978,260.609 248.5,268.5C 247.87,280.7 247.037,293.033 246,305.5C 245.612,306.428 244.945,307.095 244,307.5C 242.036,306.148 239.869,305.314 237.5,305C 236.903,303.938 236.57,302.772 236.5,301.5C 237.361,287.021 238.694,272.521 240.5,258C 239.702,241.521 239.202,225.021 239,208.5C 236.521,205.151 237.021,202.484 240.5,200.5C 241.142,203.797 242.309,204.131 244,201.5C 243.776,206.427 243.442,211.427 243,216.5C 242.667,215.833 242.333,215.167 242,214.5C 241.46,216.135 241.96,217.468 243.5,218.5C 243.431,220.278 243.097,222.111 242.5,224C 243.3,228.08 243.8,232.247 244,236.5C 244.39,239.104 245.224,241.438 246.5,243.5 Z"/></g>
<g><path style="opacity:1" fill="#1a3e24" d="M 153.5,293.5 C 153.127,311.257 157.127,328.257 165.5,344.5C 164.842,345.398 164.176,346.398 163.5,347.5C 162.232,345.696 161.565,343.696 161.5,341.5C 157.178,340.694 155.845,338.194 157.5,334C 156.742,331.908 155.575,330.075 154,328.5C 152.234,321.435 150.9,314.435 150,307.5C 149.831,300.809 149.331,294.142 148.5,287.5C 147.029,288.381 146.196,289.714 146,291.5C 145.501,295.486 145.334,299.486 145.5,303.5C 146.5,303.5 147.5,303.5 148.5,303.5C 148.102,307.76 148.102,311.927 148.5,316C 147.164,317.834 146.164,319.834 145.5,322C 145.844,323.365 146.511,324.532 147.5,325.5C 146.752,327.416 146.752,329.416 147.5,331.5C 149.103,331.312 150.437,331.812 151.5,333C 150.616,337.55 151.949,341.55 155.5,345C 154.747,346.487 153.914,346.654 153,345.5C 152.536,346.094 152.369,346.761 152.5,347.5C 151.024,345.231 149.524,342.898 148,340.5C 146.06,334.23 143.893,328.064 141.5,322C 141.957,321.586 142.291,321.086 142.5,320.5C 141.095,316.259 140.095,311.926 139.5,307.5C 139.713,299.77 139.713,292.27 139.5,285C 140.282,282.328 141.282,279.828 142.5,277.5C 144.68,270.829 147.18,264.163 150,257.5C 152.237,255.353 154.237,253.02 156,250.5C 155.791,246.541 157.625,244.874 161.5,245.5C 162.504,238.596 165.504,232.763 170.5,228C 172.833,227.333 175.167,227.333 177.5,228C 178.355,232.534 176.355,235.034 171.5,235.5C 171.149,238.238 170.482,240.904 169.5,243.5C 166.844,246.794 164.178,250.127 161.5,253.5C 159.004,254.969 156.337,255.636 153.5,255.5C 153.5,256.833 153.5,258.167 153.5,259.5C 154.552,259.351 155.552,259.517 156.5,260C 154.57,263.898 153.57,268.065 153.5,272.5C 152.551,279.67 152.551,286.67 153.5,293.5 Z"/></g>
<g><path style="opacity:0.591" fill="#7f8f82" d="M 235.5,266.5 C 236.833,273.833 236.833,281.167 235.5,288.5C 235.106,281.075 235.106,273.742 235.5,266.5 Z"/></g>
<g><path style="opacity:0.231" fill="#8c9d90" d="M 249.5,279.5 C 250.833,285.167 250.833,290.833 249.5,296.5C 248.167,290.833 248.167,285.167 249.5,279.5 Z"/></g>
<g><path style="opacity:0.084" fill="#92a78f" d="M 235.5,288.5 C 236.055,292.012 235.388,295.012 233.5,297.5C 233.99,294.345 234.656,291.345 235.5,288.5 Z"/></g>
<g><path style="opacity:0.224" fill="#8da190" d="M 335.5,289.5 C 336.49,295.31 336.823,301.31 336.5,307.5C 336.167,307.5 335.833,307.5 335.5,307.5C 335.229,301.405 335.229,295.405 335.5,289.5 Z"/></g>
<g><path style="opacity:1" fill="#113b1e" d="M 307.5,382.5 C 306.833,382.833 306.167,383.167 305.5,383.5C 301.403,382.897 298.236,384.231 296,387.5C 294.5,388 293,388.5 291.5,389C 294.063,389.763 294.063,390.263 291.5,390.5C 290.833,390.167 290.167,389.833 289.5,389.5C 290.246,388.264 290.579,386.93 290.5,385.5C 293.045,385.849 295.045,385.016 296.5,383C 295.167,382.333 293.833,381.667 292.5,381C 294.86,379.635 296.527,377.635 297.5,375C 300.112,374.361 302.446,373.194 304.5,371.5C 306.241,366.094 309.907,362.761 315.5,361.5C 316.246,360.264 316.579,358.93 316.5,357.5C 318.124,357.36 319.29,358.027 320,359.5C 319.762,356.938 320.762,354.604 323,352.5C 323.495,350.527 323.662,348.527 323.5,346.5C 324.5,346.5 325.5,346.5 326.5,346.5C 326.5,345.167 326.5,343.833 326.5,342.5C 329.636,341.526 331.636,339.359 332.5,336C 331.892,333.816 332.559,331.816 334.5,330C 334.167,329 333.833,328 333.5,327C 334.46,325.581 335.293,324.081 336,322.5C 336.499,317.511 336.666,312.511 336.5,307.5C 336.823,301.31 336.49,295.31 335.5,289.5C 335.5,289.167 335.5,288.833 335.5,288.5C 335.682,282.743 336.515,277.076 338,271.5C 339.333,270.833 340.333,269.833 341,268.5C 341.721,274.394 343.221,280.06 345.5,285.5C 345.167,286.167 344.833,286.833 344.5,287.5C 347.971,296.302 348.471,305.302 346,314.5C 342.733,323.467 339.567,332.467 336.5,341.5C 334.5,343.5 332.5,345.5 330.5,347.5C 329.319,349.135 329.319,350.802 330.5,352.5C 328.121,355.152 326.288,358.152 325,361.5C 323.989,362.337 322.822,362.67 321.5,362.5C 320.833,365.167 320.167,367.833 319.5,370.5C 316.074,371.433 312.741,371.933 309.5,372C 310.059,372.725 310.392,373.558 310.5,374.5C 309.213,376.16 307.88,377.826 306.5,379.5C 307.127,380.417 307.461,381.417 307.5,382.5 Z"/></g>
<g><path style="opacity:1" fill="#233f29" d="M 321.5,248.5 C 323.636,249.403 325.636,250.569 327.5,252C 326.483,253.049 326.316,254.216 327,255.5C 328.667,256.5 330,257.833 331,259.5C 331.679,262.55 332.512,265.55 333.5,268.5C 334.328,269.415 335.328,270.081 336.5,270.5C 337.615,268.511 337.282,266.678 335.5,265C 335.667,264.5 335.833,264 336,263.5C 338.29,264.41 339.456,263.41 339.5,260.5C 337.936,257.694 337.27,254.694 337.5,251.5C 338.931,252.903 340.098,254.569 341,256.5C 358.561,306.661 347.395,348.661 307.5,382.5C 307.461,381.417 307.127,380.417 306.5,379.5C 307.88,377.826 309.213,376.16 310.5,374.5C 310.392,373.558 310.059,372.725 309.5,372C 312.741,371.933 316.074,371.433 319.5,370.5C 320.167,367.833 320.833,365.167 321.5,362.5C 322.822,362.67 323.989,362.337 325,361.5C 326.288,358.152 328.121,355.152 330.5,352.5C 329.319,350.802 329.319,349.135 330.5,347.5C 332.5,345.5 334.5,343.5 336.5,341.5C 339.567,332.467 342.733,323.467 346,314.5C 348.471,305.302 347.971,296.302 344.5,287.5C 344.833,286.833 345.167,286.167 345.5,285.5C 343.221,280.06 341.721,274.394 341,268.5C 340.333,269.833 339.333,270.833 338,271.5C 336.515,277.076 335.682,282.743 335.5,288.5C 333.04,281.96 331.54,275.293 331,268.5C 328.246,261.979 325.08,255.312 321.5,248.5 Z"/></g>
<g><path style="opacity:1" fill="#143c20" d="M 165.5,344.5 C 165.614,353.028 169.614,358.861 177.5,362C 179.764,365.935 182.431,369.602 185.5,373C 185.275,374.621 184.442,375.788 183,376.5C 178.555,375.021 174.055,373.021 169.5,370.5C 162.159,364.185 156.492,356.519 152.5,347.5C 152.369,346.761 152.536,346.094 153,345.5C 153.914,346.654 154.747,346.487 155.5,345C 151.949,341.55 150.616,337.55 151.5,333C 150.437,331.812 149.103,331.312 147.5,331.5C 146.752,329.416 146.752,327.416 147.5,325.5C 146.511,324.532 145.844,323.365 145.5,322C 146.164,319.834 147.164,317.834 148.5,316C 148.102,311.927 148.102,307.76 148.5,303.5C 147.5,303.5 146.5,303.5 145.5,303.5C 145.334,299.486 145.501,295.486 146,291.5C 146.196,289.714 147.029,288.381 148.5,287.5C 149.331,294.142 149.831,300.809 150,307.5C 150.9,314.435 152.234,321.435 154,328.5C 155.575,330.075 156.742,331.908 157.5,334C 155.845,338.194 157.178,340.694 161.5,341.5C 161.565,343.696 162.232,345.696 163.5,347.5C 164.176,346.398 164.842,345.398 165.5,344.5 Z"/></g>
<g><path style="opacity:1" fill="#224029" d="M 165.5,344.5 C 192.527,383.035 228.194,396.702 272.5,385.5C 270.967,388.276 268.634,390.11 265.5,391C 243.193,395.565 222.36,392.399 203,381.5C 202.692,382.308 202.192,382.975 201.5,383.5C 200.304,383.154 200.304,382.654 201.5,382C 199.5,381.667 197.5,381.333 195.5,381C 196.634,379.984 196.301,379.317 194.5,379C 195.851,376.875 195.185,375.708 192.5,375.5C 191.833,375.667 191.167,375.833 190.5,376C 191.191,377.067 191.691,378.234 192,379.5C 192.333,378.833 192.667,378.167 193,377.5C 193.452,380.149 194.286,382.649 195.5,385C 192.833,385.667 192.833,386.333 195.5,387C 195.167,387.333 194.833,387.667 194.5,388C 195.305,389.113 195.972,390.279 196.5,391.5C 187.249,386.519 178.416,380.185 170,372.5C 169.536,371.906 169.369,371.239 169.5,370.5C 174.055,373.021 178.555,375.021 183,376.5C 184.442,375.788 185.275,374.621 185.5,373C 182.431,369.602 179.764,365.935 177.5,362C 169.614,358.861 165.614,353.028 165.5,344.5 Z"/></g>
<g><path style="opacity:1" fill="#173c21" d="M 335.5,307.5 C 335.833,307.5 336.167,307.5 336.5,307.5C 336.666,312.511 336.499,317.511 336,322.5C 335.293,324.081 334.46,325.581 333.5,327C 333.833,328 334.167,329 334.5,330C 332.559,331.816 331.892,333.816 332.5,336C 331.636,339.359 329.636,341.526 326.5,342.5C 326.5,343.833 326.5,345.167 326.5,346.5C 325.5,346.5 324.5,346.5 323.5,346.5C 323.662,348.527 323.495,350.527 323,352.5C 320.762,354.604 319.762,356.938 320,359.5C 319.29,358.027 318.124,357.36 316.5,357.5C 316.579,358.93 316.246,360.264 315.5,361.5C 309.907,362.761 306.241,366.094 304.5,371.5C 302.446,373.194 300.112,374.361 297.5,375C 296.527,377.635 294.86,379.635 292.5,381C 293.833,381.667 295.167,382.333 296.5,383C 295.045,385.016 293.045,385.849 290.5,385.5C 290.579,386.93 290.246,388.264 289.5,389.5C 290.167,389.833 290.833,390.167 291.5,390.5C 294.063,390.263 294.063,389.763 291.5,389C 293,388.5 294.5,388 296,387.5C 298.236,384.231 301.403,382.897 305.5,383.5C 293.577,392.328 280.244,398.661 265.5,402.5C 263.402,401.516 261.402,401.849 259.5,403.5C 256.863,402.154 254.196,402.487 251.5,404.5C 247.637,403.605 243.637,403.272 239.5,403.5C 238.041,403.567 236.708,403.234 235.5,402.5C 221.975,402.46 208.975,398.793 196.5,391.5C 195.972,390.279 195.305,389.113 194.5,388C 194.833,387.667 195.167,387.333 195.5,387C 192.833,386.333 192.833,385.667 195.5,385C 194.286,382.649 193.452,380.149 193,377.5C 192.667,378.167 192.333,378.833 192,379.5C 191.691,378.234 191.191,377.067 190.5,376C 191.167,375.833 191.833,375.667 192.5,375.5C 195.185,375.708 195.851,376.875 194.5,379C 196.301,379.317 196.634,379.984 195.5,381C 197.5,381.333 199.5,381.667 201.5,382C 200.304,382.654 200.304,383.154 201.5,383.5C 202.192,382.975 202.692,382.308 203,381.5C 222.36,392.399 243.193,395.565 265.5,391C 268.634,390.11 270.967,388.276 272.5,385.5C 308.168,371.718 329.168,345.718 335.5,307.5 Z"/></g>
<g><path style="opacity:0.004" fill="#fefffe" d="M 235.5,402.5 C 236.708,403.234 238.041,403.567 239.5,403.5C 239.083,404.124 238.416,404.457 237.5,404.5C 236.287,404.253 235.62,403.586 235.5,402.5 Z"/></g>
</svg>
